<ttFont>
          <CharString index="0">
            -95 callsubr
            209 63 171 175 176 -61 170 -208 hvcurveto
            -99 callgsubr
            return
          </CharString>
          <CharString index="1">
            37 -30 31 -39 vhcurveto
            -104 callgsubr
            return
          </CharString>
          <CharString index="2">
            -209 668 rlineto
            -153 hlineto
            -212 -668 rlineto
            146 hlineto
            46 158 rlineto
            193 hlineto
            47 -158 rlineto
            -78 267 rmoveto
            -131 hlineto
            65 263 rlineto
            return
          </CharString>
          <CharString index="3">
            19 -6 25 -6 13 vhcurveto
            -115 hlineto
            11 -25 6 -26 -21 vvcurveto
            -58 -31 -55 -51 -59 vhcurveto
            103 hlineto
            54 50 35 65 72 vvcurveto
            return
          </CharString>
          <CharString index="4">
            200 -13 rmoveto
            65 61 31 29 37 hvcurveto
            12 -60 rlineto
            115 526 -140 -381 hlineto
            -85 callsubr
            -355 vlineto
            -96 24 -75 126 vhcurveto
            return
          </CharString>
          <CharString index="5">
            -20 hstemhm
            59 145 198 145 -51 callgsubr
            -106 callgsubr
            return
          </CharString>
          <CharString index="6">
            -102 callgsubr
            endchar
          </CharString>
          <CharString index="7">
            -20 hstemhm
            -58 callsubr
            -51 callgsubr
            -107 callsubr
            return
          </CharString>
          <CharString index="8">
            -59 callgsubr
            hintmask 0000011000000000
            -79 callsubr
            hintmask 0011100110000000
            -107 callgsubr
            hintmask 0101100110000000
            -47 callgsubr
            hintmask 0011100110000000
            -100 callgsubr
            return
          </CharString>
          <CharString index="9">
            -70 callsubr
            -155 -74 -119 -137 -148 51 -131 186 -29 callgsubr
            vhcurveto
            -64 callsubr
            return
          </CharString>
          <CharString index="10">
            -40 -29 -31 -37 -40 29 -31 40 39 30 31 40 return
          </CharString>
          <CharString index="11">
            hmoveto
            352 691 rlineto
            -129 hlineto
            -353 -691 rlineto
            14 323 -89 callgsubr
            hintmask 0101111110000000
            -72 callsubr
            458 -643 -89 callgsubr
            -72 callsubr
            endchar
          </CharString>
          <CharString index="12">
            310 5 callgsubr
            -74 callsubr
            61 -170 207 return
          </CharString>
          <CharString index="13">
            6 427 rmoveto
            50 -58 callgsubr
            -50 -71 callgsubr
            return
          </CharString>
          <CharString index="14">
            rmoveto
            hintmask 11001110
            -88 callgsubr
            hintmask 11010110
            -89 callsubr
            endchar
          </CharString>
          <CharString index="15">
            472 187 rmoveto
            -76 callsubr
            rlineto
            25 -68 -63 13 -56 hhcurveto
            -124 -92 -69 -111 -125 76 -38 90 -42 hvcurveto
            -62 callgsubr
            rlineto
            -26 55 94 -20 67 hhcurveto
            141 86 83 117 hvcurveto
            return
          </CharString>
          <CharString index="16">
            250 -13 rmoveto
            128 100 72 196 198 -94 69 -128 -46 callgsubr
            return
          </CharString>
          <CharString index="17">
            rmoveto
            53 -32 48 -71 -70 -33 -49 -53 -53 31 -50 71 71 33 52 52 vhcurveto
            -67 -1 rmoveto
            -19 -8 -21 -28 -26 -9 21 18 19 9 20 26 28 8 -20 -18 vhcurveto
            return
          </CharString>
          <CharString index="18">
            -77 callgsubr
            -63 callgsubr
            return
          </CharString>
          <CharString index="19">
            rmoveto
            -49 111 -189 -109 return
          </CharString>
          <CharString index="20">
            -81 callsubr
            -38 callgsubr
            return
          </CharString>
          <CharString index="21">
            110 vstem
            172 -92 callgsubr
            return
          </CharString>
          <CharString index="22">
            -16 -21 -37 -15 -37 hhcurveto
            -60 -5 39 43 hvcurveto
            330 -140 return
          </CharString>
          <CharString index="23">
            -3 -12 -13 -3 -12 hhcurveto
            -14 -11 6 22 hvcurveto
            return
          </CharString>
          <CharString index="24">
            rmoveto
            15 -26 -60 16 -69 hhcurveto
            -116 -75 -54 -105 hvcurveto
            -149 222 7 -79 vvcurveto
            -36 -24 -13 -42 -45 -53 13 13 -39 vhcurveto
            -34 -100 rlineto
            -17 30 75 -16 62 hhcurveto
            137 64 73 95 hvcurveto
            150 -222 -23 87 vvcurveto
            28 21 17 47 39 39 -10 -11 36 vhcurveto
            endchar
          </CharString>
          <CharString index="25">
            174 261 112 -261 151 277 116 return
          </CharString>
          <CharString index="26">
            -46 36 -38 47 44 37 38 46 return
          </CharString>
          <CharString index="27">
            rmoveto
            53 39 9 14 48 hvcurveto
            -75 callsubr
            rlineto
            14 -48 -40 9 -53 hhcurveto
            -130 -109 -78 -190 -189 113 -78 126 hvcurveto
            endchar
          </CharString>
          <CharString index="28">
            407 -11 rmoveto
            -74 callgsubr
            return
          </CharString>
          <CharString index="29">
            -41 -45 43 -49 hhcurveto
            -41 -43 -38 -37 -22 hvcurveto
            return
          </CharString>
          <CharString index="30">
            rmoveto
            34 78 -189 109 rlineto
            return
          </CharString>
          <CharString index="31">
            116 -101 55 -80 44 vhcurveto
            -60 33 -50 17 45 vvcurveto
            49 1 35 17 48 hhcurveto
            43 52 -13 -16 45 hvcurveto
            40 109 return
          </CharString>
          <CharString index="32">
            -17 91 rlineto
            -5 -33 -34 -5 -31 hhcurveto
            -73 -58 29 133 124 50 35 72 30 33 -6 -8 35 hvcurveto
            27 101 return
          </CharString>
          <CharString index="33">
            -206 -65 -170 -176 -176 return
          </CharString>
          <CharString index="34">
            107 -84 -21 224 71 128 112 return
          </CharString>
          <CharString index="35">
            33 24 -23 -100 -101 -48 callsubr
            101 100 -22 callsubr
            return
          </CharString>
          <CharString index="36">
            -297 4 callsubr
            hstem
            62 -86 callsubr
            endchar
          </CharString>
          <CharString index="37">
            rmoveto
            7 27 6 -64 callgsubr
            return
          </CharString>
          <CharString index="38">
            21 0 -68 callsubr
            return
          </CharString>
          <CharString index="39">
            116 174 112 151 116 return
          </CharString>
          <CharString index="40">
            rmoveto
            -66 callsubr
          </CharString>
          <CharString index="41">
            -105 callsubr
            endchar
          </CharString>
          <CharString index="42">
            49 -54 rlineto
            27 22 18 8 15 return
          </CharString>
          <CharString index="43">
            -24 95 rlineto
            -16 -42 -43 -7 -40 hhcurveto
            return
          </CharString>
          <CharString index="44">
            110 vstem
            41 533 rmoveto
            -78 callgsubr
            return
          </CharString>
          <CharString index="45">
            194 117 rmoveto
            281 458 -9 93 rlineto
            -433 hlineto
            15 -116 rlineto
            267 hlineto
            -283 -464 11 -88 rlineto
            453 117 hlineto
            return
          </CharString>
          <CharString index="46">
            181 95 rmoveto
            226 339 -13 78 rlineto
            -359 hlineto
            10 -96 rlineto
            205 hlineto
            -225 -341 12 -75 rlineto
            396 hlineto
            -12 95 rlineto
            return
          </CharString>
          <CharString index="47">
            hmoveto
            -104 callsubr
            endchar
          </CharString>
          <CharString index="48">
            103 -12 122 453 117 return
          </CharString>
          <CharString index="49">
            39 139 262 139 return
          </CharString>
          <CharString index="50">
            hhcurveto
            47 -52 callsubr
          </CharString>
          <CharString index="51">
            74 57 4 23 46 hvcurveto
            96 48 35 125 133 vvcurveto
            134 -35 124 -97 50 vhcurveto
            24 -46 -56 2 -74 hhcurveto
            -188 return
          </CharString>
          <CharString index="52">
            rmoveto
            415 -77 vlineto
            -143 -62 31 -81 86 36 rlineto
            -308 vlineto
            return
          </CharString>
          <CharString index="53">
            -90 callgsubr
            hintmask 11001100
            -42 callgsubr
          </CharString>
          <CharString index="54">
            hvcurveto
            -29 vlineto
            -95 -7 rlineto
            -82 vlineto
            94 -6 rlineto
            return
          </CharString>
          <CharString index="55">
            23 -38 -61 hvcurveto
            -6 vlineto
            endchar
          </CharString>
          <CharString index="56">
            -20 hstemhm
            -15 callsubr
            hintmask 00000000
            return
          </CharString>
          <CharString index="57">
            33 135 174 136 return
          </CharString>
          <CharString index="58">
            -27 callgsubr
            148 136 return
          </CharString>
          <CharString index="59">
            -24 -20 -33 -34 -23 20 return
          </CharString>
          <CharString index="60">
            -65 33 -84 -67 -86 -33 return
          </CharString>
          <CharString index="61">
            rmoveto
            -47 -36 -37 -44 return
          </CharString>
          <CharString index="62">
            -79 callgsubr
            rlineto
            hintmask 11000000
            -84 -85 rlineto
            endchar
          </CharString>
          <CharString index="63">
            107 rmoveto
            -7 -28 -16 0 -13 hhcurveto
            -32 -8 16 37 hvcurveto
            return
          </CharString>
          <CharString index="64">
            -39 callsubr
            endchar
          </CharString>
          <CharString index="65">
            91 -12 120 559 -20 return
          </CharString>
          <CharString index="66">
            -243 -66 callgsubr
            return
          </CharString>
          <CharString index="67">
            -197 96 -70 121 return
          </CharString>
          <CharString index="68">
            -49 -111 rlineto
            return
          </CharString>
          <CharString index="69">
            -49 callgsubr
            -20 callsubr
          </CharString>
          <CharString index="70">
            59 6 -23 callsubr
            140 4 callgsubr
            -24 75 -126 vhcurveto
            endchar
          </CharString>
          <CharString index="71">
            65 -31 85 hvcurveto
            1 return
          </CharString>
          <CharString index="72">
            -25 -16 -23 -28 -35 hvcurveto
            -25 -30 -30 -33 -35 -36 -11 -12 -12 -13 -12 -12 rrcurveto
            return
          </CharString>
          <CharString index="73">
            18 -251 rlineto
            90 hlineto
            18 251 rlineto
            return
          </CharString>
          <CharString index="74">
            18 19 39 19 37 hhcurveto
            return
          </CharString>
          <CharString index="75">
            rmoveto
            50 hlineto
            136 24 -76 -128 -128 -24 -77 -136 hvcurveto
            -50 return
          </CharString>
          <CharString index="76">
            33 131 172 112 return
          </CharString>
          <CharString index="77">
            rmoveto
            -140 -12 rlineto
            return
          </CharString>
          <CharString index="78">
            -21 callsubr
            157 -21 callsubr
            -35 callgsubr
            hintmask 1010111110000000
            return
          </CharString>
          <CharString index="79">
            23 103 rlineto
            15 -52 -42 7 -57 hhcurveto
            return
          </CharString>
          <CharString index="80">
            -668 144 return
          </CharString>
          <CharString index="81">
            110 184 160 -83 81 -105 -51 -52 -22 -20 -25 hvcurveto
            return
          </CharString>
          <CharString index="82">
            193 524 -30 callsubr
            -512 140 vlineto
            return
          </CharString>
          <CharString index="83">
            -145 -155 -79 -264 hvcurveto
            return
          </CharString>
          <CharString index="84">
            -39 -43 hvcurveto
            -326 return
          </CharString>
          <CharString index="85">
            23 23 34 hvcurveto
            return
          </CharString>
          <CharString index="86">
            94 114 94 return
          </CharString>
          <CharString index="87">
            107 -29 rlineto
            endchar
          </CharString>
          <CharString index="88">
            -146 -130 95 295 104 295 95 hstem
            return
          </CharString>
          <CharString index="89">
            hlineto
            -32 -185 rlineto
            111 hlineto
            32 185 rlineto
            return
          </CharString>
          <CharString index="90">
            -13 -213 105 625 -20 return
          </CharString>
          <CharString index="91">
            hstem
            -4 callsubr
            return
          </CharString>
          <CharString index="92">
            64 144 return
          </CharString>
          <CharString index="93">
            -21 430 -20 hstem
            return
          </CharString>
          <CharString index="94">
            110 38 110 return
          </CharString>
          <CharString index="95">
            rmoveto
            -89 82 -130 -174 62 -58 rlineto
            return
          </CharString>
          <CharString index="96">
            179 78 47 97 33 37 -4 -7 36 return
          </CharString>
          <CharString index="97">
            113 308 114 return
          </CharString>
          <CharString index="98">
            -6 -36 -39 -2 -32 hhcurveto
            return
          </CharString>
          <CharString index="99">
            51 -51 94 hstemhm
            return
          </CharString>
          <CharString index="100">
            455 244 hstem
            114 110 return
          </CharString>
          <CharString index="101">
            93 23 72 74 31 24 -5 -9 21 return
          </CharString>
          <CharString index="102">
            104 321 110 hstem
            32 133 return
          </CharString>
          <CharString index="103">
            53 140 return
          </CharString>
          <CharString index="104">
            10 0 117 435 116 return
          </CharString>
          <CharString index="105">
            rmoveto
            72 -63 227 -119 vlineto
            return
          </CharString>
          <CharString index="106">
            136 -35 callgsubr
            return
          </CharString>
          <CharString index="107">
            -38 callgsubr
            vhcurveto
            return
          </CharString>
          <CharString index="108">
            -20 -16 callsubr
            return
          </CharString>
          <CharString index="109">
            1 320 rmoveto
            return
          </CharString>
          <CharString index="110">
            hstem
            -15 callsubr
            return
          </CharString>
          <CharString index="111">
            -128 244 return
          </CharString>
        <CharString name=".notdef">
          -15 endchar
        </CharString>
        <CharString name=".null">
          endchar
        </CharString>
        <CharString name="A">
          -67 callgsubr
          hstem
          -101 callgsubr
          endchar
        </CharString>
        <CharString name="AE">
          302 -1 116 -94 -21 158 109 22 112 151 116 hstemhm
          361 128 hintmask 00000000
          hintmask 10111100
          361 267 rmoveto
          -117 hlineto
          117 304 rlineto
          9 -572 rmoveto
          405 116 -286 -82 callsubr
          -485 hlineto
          hintmask 01111100
          -288 -668 rlineto
          145 hlineto
          63 158 rlineto
          169 hlineto
          endchar
        </CharString>
        <CharString name="Aacute">
          -67 callgsubr
          102 -21 140 -72 callgsubr
          172 281 -90 callgsubr
          hintmask 11100000
          -42 callgsubr
        </CharString>
        <CharString name="Acircumflex">
          -67 callgsubr
          86 -21 147 -72 callgsubr
          hintmask 11100000
          1 266 -101 callsubr
        </CharString>
        <CharString name="Adieresis">
          -67 callgsubr
          81 111 hstemhm
          157 -13 callsubr
          hintmask 00000000
          hintmask 00011100
          -101 callgsubr
          -91 324 -97 callgsubr
          hintmask 11100000
          -105 callgsubr
        </CharString>
        <CharString name="Agrave">
          -67 callgsubr
          102 -21 24 -21 137 -20 70 -20 hstemhm
          hintmask 00000000
          hintmask 00010100
          357 732 -77 callsubr
          hintmask 00001010
          -39 callsubr
          hintmask 11100000
          417 -808 -67 callsubr
        </CharString>
        <CharString name="Aring">
          53 705 50 -43 63 78 64 -59 51 hstemhm
          181 68 -64 56 79 67 -53 56 hintmask 00000000
          hintmask 10010101
          387 816 -90 callsubr
          hintmask 01101010
          250 -815 -67 callsubr
        </CharString>
        <CharString name="Atilde">
          -67 callgsubr
          82 71 -24 -8 callsubr
          hintmask 00000000
          hintmask 11110000
          -101 callgsubr
          hintmask 11101000
          69 298 rmoveto
          hintmask 11100100
          -88 callgsubr
          hintmask 11101000
          -89 callsubr
          endchar
        </CharString>
        <CharString name="B">
          34 0 114 190 105 153 106 hstemhm
          64 143 132 139 -101 101 -101 139 hintmask 00000000
          hintmask 11110010
          410 632 rmoveto
          33 -51 -59 3 -90 hhcurveto
          -146 -668 220 hlineto
          162 70 82 122 78 -24 48 -79 36 hvcurveto
          hintmask 11111000
          53 33 12 42 49 vvcurveto
          58 -19 52 -49 32 vhcurveto
          -203 -70 rmoveto
          21 hlineto
          66 45 -2 -70 -55 -24 -23 -41 -3 hvcurveto
          -67 hlineto
          60 -295 rmoveto
          -60 190 48 hlineto
          hintmask 11110100
          70 52 -17 -79 -56 -26 -38 -84 hvcurveto
          endchar
        </CharString>
        <CharString name="C">
          4 -13 119 459 114 hstem
          39 147 vstem
          474 114 rmoveto
          -9 callsubr
          -103 -78 51 182 -11 callsubr
          hvcurveto
          -28 callsubr
          -24 callsubr
          -26 callgsubr
          endchar
        </CharString>
        <CharString name="CR">
          -80 endchar
        </CharString>
        <CharString name="Ccedilla">
          4 -274 -21 61 -21 198 -20 26 123 -85 85 -85 119 459 114 -83 85 hstemhm
          34 96 -91 147 117 121 -35 callgsubr
          hintmask 1111000110100000
          474 114 rmoveto
          hintmask 1110010110100000
          -9 callsubr
          hintmask 1111000101100000
          -103 -78 51 182 hvcurveto
          hintmask 1111001010100000
          -11 callsubr
          vhcurveto
          -28 callsubr
          hintmask 1111000101100000
          -24 callsubr
          hintmask 1110100110100000
          -26 callgsubr
          -77 -62 -80 callgsubr
          endchar
        </CharString>
        <CharString name="D">
          86 0 129 409 129 3 callsubr
          210 142 vstem
          208 538 -32 callsubr
          hlineto
          44 -129 rmoveto
          -56 callsubr
          -667 hlineto
          endchar
        </CharString>
        <CharString name="E">
          -69 callsubr
          3 callsubr
          vstem
          -95 callgsubr
          endchar
        </CharString>
        <CharString name="Eacute">
          -75 callgsubr
          -112 695 -90 callgsubr
          hintmask 11100100
          -42 callgsubr
        </CharString>
        <CharString name="Ecircumflex">
          -69 callsubr
          65 -21 147 -87 callgsubr
          hintmask 11100100
          -238 680 -101 callsubr
        </CharString>
        <CharString name="Edieresis">
          -69 callsubr
          60 111 hstemhm
          -15 callsubr
          -87 -13 callsubr
          hintmask 00000000
          hintmask 00010110
          -95 callgsubr
          -318 738 -97 callgsubr
          hintmask 11101000
          -105 callgsubr
        </CharString>
        <CharString name="Egrave">
          -75 callgsubr
          -140 616 -77 callsubr
          hintmask 11100100
          -43 callsubr
        </CharString>
        <CharString name="Eth">
          138 0 129 151 112 146 129 hstem
          116 144 210 142 vstem
          21 280 rmoveto
          95 -280 188 hlineto
          -56 callsubr
          -275 -95 hlineto
          239 146 -32 callsubr
          151 115 112 -115 hlineto
          endchar
        </CharString>
        <CharString name="Euro">
          66 -13 119 121 74 76 74 114 114 hstem
          100 147 vstem
          407 451 -15 callgsubr
          88 26 62 26 73 hhcurveto
          33 37 -4 -7 36 hvcurveto
          -28 callsubr
          -122 -128 -56 -172 -38 hvcurveto
          -79 -74 68 hlineto
          -1 -13 0 -14 -14 vvcurveto
          -12 0 -12 1 -11 vhcurveto
          -68 -74 76 hlineto
          -180 34 118 -60 129 hhcurveto
          53 53 7 11 48 hvcurveto
          -9 109 rlineto
          -9 callsubr
          -78 -63 29 92 -27 hvcurveto
          147 74 -159 hlineto
          -1 12 0 12 14 vvcurveto
          13 0 13 1 12 vhcurveto
          159 hlineto
          endchar
        </CharString>
        <CharString name="F">
          -3 21 -21 290 112 151 115 hstem
          64 145 vstem
          485 553 rmoveto
          115 -421 -668 145 290 252 112 -252 151 vlineto
          endchar
        </CharString>
        <CharString name="G">
          65 -13 119 130 105 224 114 hstemhm
          38 147 126 225 -131 131 hintmask 00000000
          hintmask 11111000
          38 336 rmoveto
          -259 5 130 -90 146 hhcurveto
          71 76 16 28 70 hvcurveto
          310 -225 -105 94 -124 vlineto
          hintmask 11110100
          -4 -23 -22 -2 -20 hhcurveto
          -87 -68 56 177 179 78 47 97 40 50 -6 -10 42 hvcurveto
          21 104 rlineto
          17 -62 -49 9 -64 hhcurveto
          -24 callsubr
          endchar
        </CharString>
        <CharString name="H">
          118 21 -21 288 116 264 -20 hstem
          64 143 219 143 vstem
          426 404 rmoveto
          -219 264 -143 -668 143 288 219 -288 143 668 -143 hlineto
          endchar
        </CharString>
        <CharString name="I">
          -41 callsubr
          3 callsubr
          vstem
          -68 callgsubr
          endchar
        </CharString>
        <CharString name="Iacute">
          -60 callgsubr
          77 811 -90 callgsubr
          hintmask 11001000
          -42 callgsubr
        </CharString>
        <CharString name="Icircumflex">
          -41 callsubr
          86 -21 147 -51 callsubr
          hintmask 00110000
          -68 callgsubr
          hintmask 11001000
          -76 796 -101 callsubr
        </CharString>
        <CharString name="Idieresis">
          -41 callsubr
          81 96 hstemhm
          20 95 -51 144 -57 95 hintmask 00000000
          hintmask 00110100
          -68 callgsubr
          -174 854 -97 callgsubr
          hintmask 11001000
          -105 callgsubr
        </CharString>
        <CharString name="Igrave">
          -60 callgsubr
          -26 732 -77 callsubr
          hintmask 11001000
          -43 callsubr
        </CharString>
        <CharString name="J">
          -245 -165 -21 854 -20 hstem
          65 143 vstem
          4 -186 rmoveto
          157 71 47 100 138 vvcurveto
          545 -143 -547 vlineto
          -101 -18 -52 -105 -59 vhcurveto
          endchar
        </CharString>
        <CharString name="K">
          121 -39 callgsubr
          64 144 vstem
          230 341 rmoveto
          233 -341 rlineto
          175 hlineto
          -251 346 207 322 rlineto
          -170 hlineto
          -216 hmoveto
          -144 -27 callsubr
          hlineto
          endchar
        </CharString>
        <CharString name="L">
          -41 0 116 552 -20 hstem
          64 145 vstem
          209 116 rmoveto
          552 -145 -668 400 116 vlineto
          endchar
        </CharString>
        <CharString name="Lslash">
          1 0 116 158 109 285 -20 hstem
          106 145 vstem
          419 383 rmoveto
          -168 285 -145 -285 -89 -109 89 -274 400 116 -255 158 168 hlineto
          endchar
        </CharString>
        <CharString name="M">
          256 -39 callgsubr
          65 122 396 122 vstem
          438 85 rmoveto
          137 393 16 -478 rlineto
          134 hlineto
          -39 668 rlineto
          -156 hlineto
          -145 -430 -144 430 rlineto
          -156 hlineto
          -39 -668 rlineto
          133 hlineto
          16 479 138 -394 rlineto
          endchar
        </CharString>
        <CharString name="N">
          167 -39 callgsubr
          64 139 275 140 vstem
          -54 callgsubr
          endchar
        </CharString>
        <CharString name="Ntilde">
          167 -66 callgsubr
          82 71 -24 -8 callsubr
          64 139 275 -36 callgsubr
          hintmask 11100110
          -54 callgsubr
          hintmask 11010110
          -67 828 -93 callsubr
        </CharString>
        <CharString name="O">
          -59 callsubr
          hstem
          -58 callsubr
          vstem
          -107 callsubr
          endchar
        </CharString>
        <CharString name="OE">
          398 -12 128 -116 -68 callsubr
          11 -20 hstemhm
          39 139 262 131 hintmask 00000000
          hintmask 10101110
          -95 callsubr
          64 51 16 27 39 hvcurveto
          hintmask 01110110
          -31 410 116 -300 174 275 112 -275 151 291 116 -401 -31 vlineto
          hintmask 10101110
          26 -39 -49 16 -63 hhcurveto
          -99 callgsubr
          endchar
        </CharString>
        <CharString name="Oacute">
          -59 callsubr
          70 -21 138 -100 callsubr
          122 701 -54 callsubr
        </CharString>
        <CharString name="Ocircumflex">
          -59 callsubr
          54 -21 147 -100 callsubr
          hintmask 11001100
          1 686 -101 callsubr
        </CharString>
        <CharString name="Odieresis">
          -59 callsubr
          49 111 hstemhm
          39 139 9 -13 callsubr
          -5 139 hintmask 00000000
          hintmask 00101100
          -107 callsubr
          -98 744 -91 callgsubr
        </CharString>
        <CharString name="Ograve">
          -59 callsubr
          70 -21 140 -100 callsubr
          77 622 -53 callgsubr
        </CharString>
        <CharString name="Oslash">
          103 -89 -21 98 122 453 117 98 -20 hstem
          -58 callsubr
          vstem
          523 740 rmoveto
          -103 38 -43 -105 rlineto
          5 -21 -22 2 -24 hhcurveto
          -206 -65 -170 -176 -106 21 -103 62 -66 hvcurveto
          -55 -133 105 -36 45 110 rlineto
          -8 27 29 -4 34 hhcurveto
          209 63 171 175 115 -26 113 -77 64 hvcurveto
          -167 -516 rmoveto
          -17 -14 2 5 -13 hvcurveto
          153 369 rlineto
          16 -40 6 -54 -58 vvcurveto
          -125 -26 -99 -105 vhcurveto
          -131 224 rmoveto
          126 26 103 105 7 7 -1 -1 7 vhcurveto
          -141 -341 rlineto
          -8 33 -3 39 42 vvcurveto
          endchar
        </CharString>
        <CharString name="Otilde">
          -59 callsubr
          50 57 -13 -8 callsubr
          -58 callsubr
          hintmask 00000000
          hintmask 11100110
          -107 callsubr
          hintmask 11010110
          66 715 -93 callsubr
        </CharString>
        <CharString name="P">
          25 21 -21 244 106 212 106 3 callsubr
          172 140 vstem
          459 610 rmoveto
          -28 callgsubr
          112 60 14 38 47 hvcurveto
          48 39 20 59 -1 callgsubr
          -113 -239 -18 callgsubr
          93 53 -15 -94 -38 -9 -27 -25 -17 hvcurveto
          endchar
        </CharString>
        <CharString name="Q">
          103 -116 -21 127 104 469 117 hstem
          -58 callsubr
          vstem
          307 -10 rmoveto
          197 -31 97 -96 0 vvcurveto
          72 98 -52 31 -83 32 -77 9 rlinecurve
          88 62 30 118 121 vvcurveto
          176 -61 170 -208 -74 callsubr
          69 -168 199 vhcurveto
          2 104 rmoveto
          -99 -32 101 139 126 32 103 99 100 31 -103 -126 -139 -32 -101 -99 hvcurveto
          endchar
        </CharString>
        <CharString name="R">
          66 -12 -21 54 -21 562 106 3 callsubr
          173 139 vstem
          461 -33 rmoveto
          108 66 -171 233 19 7 19 10 16 13 rlinecurve
          49 37 19 61 -1 callgsubr
          -28 callgsubr
          10 11 0 1 9 hvcurveto
          83 126 -18 callgsubr
          56 40 -6 -22 23 hvcurveto
          17 -16 11 -29 -36 vvcurveto
          -38 -10 -27 -25 -17 vhcurveto
          endchar
        </CharString>
        <CharString name="S">
          -16 -13 123 453 118 hstem
          42 139 152 139 vstem
          -92 callsubr
          endchar
        </CharString>
        <CharString name="Scaron">
          -15 -13 123 453 118 65 -21 136 -20 hstemhm
          42 139 152 139 -51 callgsubr
          -92 callsubr
          -320 709 -79 callgsubr
          rlineto
          hintmask 11001100
          -84 -85 rlineto
          endchar
        </CharString>
        <CharString name="T">
          0 21 -21 553 115 hstem
          184 144 vstem
          184 553 rmoveto
          -553 144 553 177 115 -495 -115 vlineto
          endchar
        </CharString>
        <CharString name="Thorn">
          -11 21 -21 183 93 228 93 100 -20 hstem
          64 104 211 105 vstem
          425 542 rmoveto
          41 -46 -52 14 -103 hhcurveto
          -56 100 -104 -697 104 183 31 hlineto
          113 59 13 38 48 hvcurveto
          46 34 19 61 66 vvcurveto
          56 -16 53 -43 38 vhcurveto
          -84 -243 rmoveto
          -16 -23 -34 -7 -74 hhcurveto
          -42 228 57 hlineto
          57 42 -7 -23 24 hvcurveto
          19 -19 12 -27 -38 vvcurveto
          -42 -11 -30 -27 -19 vhcurveto
          endchar
        </CharString>
        <CharString name="U">
          -42 callsubr
          hstem
          59 145 198 145 vstem
          -106 callgsubr
          endchar
        </CharString>
        <CharString name="Uacute">
          -93 callgsubr
          137 823 -54 callsubr
        </CharString>
        <CharString name="Ucircumflex">
          -42 callsubr
          87 -21 147 -102 callsubr
          hintmask 11001100
          3 808 -101 callsubr
        </CharString>
        <CharString name="Udieresis">
          -42 callsubr
          82 111 hstemhm
          59 145 -34 -13 callsubr
          -26 145 hintmask 00000000
          hintmask 00101100
          -106 callgsubr
          -89 866 -91 callgsubr
        </CharString>
        <CharString name="Ugrave">
          -93 callgsubr
          79 744 -53 callgsubr
        </CharString>
        <CharString name="V">
          38 -39 callgsubr
          -14 callgsubr
          -142 hlineto
          210 -668 rlineto
          141 hlineto
          210 668 rlineto
          -142 hlineto
          -45 -156 -47 -194 -47 -158 rrcurveto
          endchar
        </CharString>
        <CharString name="W">
          280 -39 callgsubr
          345 612 rmoveto
          -141 -449 -36 505 rlineto
          -132 hlineto
          67 -668 rlineto
          150 hlineto
          144 494 145 -494 rlineto
          150 hlineto
          67 668 rlineto
          -133 hlineto
          -36 -504 -140 448 rlineto
          endchar
        </CharString>
        <CharString name="X">
          85 21 -21 667 -20 hstem
          591 hmoveto
          -219 340 208 327 rlineto
          -156 hlineto
          -125 -227 -126 227 rlineto
          -154 hlineto
          205 -333 -215 -334 rlineto
          154 hlineto
          134 231 133 -231 rlineto
          endchar
        </CharString>
        <CharString name="Y">
          33 -39 callgsubr
          202 144 vstem
          -14 callgsubr
          -146 hlineto
          210 -404 rlineto
          -264 144 264 vlineto
          210 404 -7 callgsubr
          2 callgsubr
          rlineto
          endchar
        </CharString>
        <CharString name="Yacute">
          33 -66 callgsubr
          102 -21 27 -21 134 -20 73 -20 hstemhm
          202 144 hintmask 00000000
          hintmask 00101000
          -14 callgsubr
          -146 hlineto
          210 -404 rlineto
          -264 144 264 vlineto
          210 404 -7 callgsubr
          hintmask 11000010
          2 callgsubr
          rlineto
          139 428 -90 callgsubr
          hintmask 00010100
          -42 callgsubr
        </CharString>
        <CharString name="Ydieresis">
          33 -66 callgsubr
          67 139 -128 96 hstemhm
          108 138 -112 95 -27 144 -81 95 -68 138 -35 callgsubr
          hintmask 0001010100000000
          -14 callgsubr
          -146 hlineto
          210 -404 rlineto
          -264 144 264 vlineto
          210 404 -7 callgsubr
          hintmask 1100001000000000
          2 callgsubr
          rlineto
          -97 471 -97 callgsubr
          hintmask 0010100010000000
          -105 callgsubr
        </CharString>
        <CharString name="Z">
          -3 callsubr
          hstem
          -62 callsubr
          endchar
        </CharString>
        <CharString name="Zcaron">
          -3 callsubr
          78 -21 136 -20 hstemhm
          -51 callgsubr
          -62 callsubr
          -311 779 -45 callsubr
        </CharString>
        <CharString name="_0007">
          endchar
        </CharString>
        <CharString name="_0009">
          endchar
        </CharString>
        <CharString name="_0127">
          endchar
        </CharString>
        <CharString name="_0129">
          endchar
        </CharString>
        <CharString name="_0141">
          endchar
        </CharString>
        <CharString name="_0142">
          endchar
        </CharString>
        <CharString name="_0143">
          endchar
        </CharString>
        <CharString name="_0144">
          endchar
        </CharString>
        <CharString name="_0157">
          endchar
        </CharString>
        <CharString name="_0158">
          endchar
        </CharString>
        <CharString name="a">
          -81 callgsubr
          -49 callsubr
          hintmask 00000000
          hintmask 00111110
          -79 callsubr
          hintmask 01011110
          -107 callgsubr
          hintmask 00111110
          -47 callgsubr
          hintmask 10011110
          -100 callgsubr
          endchar
        </CharString>
        <CharString name="a.alt">
          50 -12 95 -73 -21 418 107 6 -20 hstemhm
          34 138 173 138 hintmask 00000000
          hintmask 10101100
          355 31 rmoveto
          -29 17 34 -13 46 hhcurveto
          21 44 4 24 44 hvcurveto
          -18 83 rlineto
          -3 -12 -13 -3 -12 hhcurveto
          -13 -10 5 23 hvcurveto
          hintmask 01011100
          398 -116 vlineto
          -8 -35 rlineto
          19 -44 -42 10 -38 hhcurveto
          -119 -82 -91 -162 -185 68 -88 117 42 51 7 36 43 hvcurveto
          -10 79 rmoveto
          -19 -3 callgsubr
          89 hvcurveto
          hintmask 10101100
          -6 callsubr
          vhcurveto
          endchar
        </CharString>
        <CharString name="aacute">
          -81 callgsubr
          78 -21 198 -99 callsubr
          142 583 -90 callgsubr
          hintmask 1001100110000000
          -42 callgsubr
        </CharString>
        <CharString name="acircumflex">
          -5 -13 -73 callsubr
          78 -21 31 -21 136 -20 55 -59 callgsubr
          hintmask 0000101000000000
          239 676 -102 callgsubr
          hintmask 0000010100000000
          252 -602 rmoveto
          -74 callgsubr
          hintmask 0111000011000000
          -107 callgsubr
          hintmask 1011000011000000
          -47 callgsubr
          hintmask 0111000011000000
          -100 callgsubr
          endchar
        </CharString>
        <CharString name="acute">
          -173 608 3 callgsubr
          hstem
          288 663 -88 callsubr
          -42 callgsubr
        </CharString>
        <CharString name="adieresis">
          -81 callgsubr
          72 111 -27 callgsubr
          -95 -22 callgsubr
          -32 -1 callsubr
          hintmask 0000010110000000
          -79 callsubr
          hintmask 0011101001000000
          -107 callgsubr
          hintmask 0101101001000000
          -47 callgsubr
          hintmask 0011101001000000
          -100 callgsubr
          -61 655 -97 callgsubr
          hintmask 1001101001000000
          -105 callgsubr
        </CharString>
        <CharString name="ae">
          231 -13 93 -93 105 121 71 -42 76 105 99 2 -20 -27 callgsubr
          451 112 hintmask 00000000
          hintmask 10011011
          701 242 rmoveto
          6 27 7 -64 callgsubr
          -58 -47 -17 -48 -35 vhcurveto
          hintmask 10101011
          54 -27 -45 13 -70 hhcurveto
          -41 -86 -12 -33 -55 hvcurveto
          29 -88 rlineto
          11 33 50 10 42 hhcurveto
          hintmask 10011011
          -73 callgsubr
          -39 -84 callgsubr
          hintmask 10100111
          -90 60 -57 114 73 77 31 25 34 vhcurveto
          -35 36 46 -21 75 hhcurveto
          -29 callgsubr
          hvcurveto
          -64 callsubr
          -71 -40 callgsubr
          -188 -162 rmoveto
          -62 -29 19 50 47 40 17 66 16 29 -1 -1 14 hvcurveto
          4 -38 8 -36 14 -31 rrcurveto
          -17 -26 -50 -9 -24 hhcurveto
          185 238 rmoveto
          hintmask 01011011
          30 5 18 75 79 hhcurveto
          50 -52 callsubr
        </CharString>
        <CharString name="agrave">
          -81 callgsubr
          74 -21 177 -99 callsubr
          103 507 -77 callsubr
          hintmask 1001100110000000
          -43 callsubr
        </CharString>
        <CharString name="ampersand">
          162 -13 108 -107 -21 615 101 hstemhm
          35 127 -51 128 270 108 hintmask 00000000
          hintmask 10101100
          383 139 rmoveto
          -31 -33 -44 -13 -38 hhcurveto
          -73 -33 50 50 46 27 50 48 23 hvcurveto
          43 369 rmoveto
          -91 -78 -51 -90 hvcurveto
          hintmask 10110100
          -59 36 -53 31 -40 vhcurveto
          -82 -42 -61 -66 -92 vvcurveto
          -138 105 -65 122 68 70 25 53 50 vhcurveto
          45 -36 80 -43 45 -19 53 93 rcurveline
          -37 18 -69 39 -39 34 55 73 30 98 4 104 rrcurveto
          -108 hlineto
          -5 -69 -20 -76 -26 -51 -171 206 rcurveline
          -31 37 -17 31 26 vvcurveto
          39 27 13 34 vhcurveto
          hintmask 01101100
          47 61 -24 -9 21 hvcurveto
          33 97 rlineto
          25 -68 -58 12 -56 hhcurveto
          endchar
        </CharString>
        <CharString name="aring">
          -81 callgsubr
          63 54 97 54 -27 callgsubr
          -55 59 88 59 -3 -1 callsubr
          hintmask 0000011011000000
          -79 callsubr
          hintmask 0011100100100000
          -107 callgsubr
          hintmask 0101100100100000
          -47 callgsubr
          hintmask 0011100100100000
          -100 callgsubr
          hintmask 1001100100100000
          129 621 -90 callsubr
          endchar
        </CharString>
        <CharString name="asciicircum">
          -16 316 -21 348 -20 hstem
          204 643 rmoveto
          -176 -348 rlineto
          120 hlineto
          101 200 99 -200 rlineto
          122 hlineto
          -178 348 rlineto
          endchar
        </CharString>
        <CharString name="asciitilde">
          52 196 112 -46 113 hstemhm
          hintmask 00000000
          hintmask 10000000
          398 308 rmoveto
          -33 -32 16 15 -34 hvcurveto
          hintmask 01000000
          18 -38 -40 18 -50 hhcurveto
          -49 -47 -31 -73 -41 hvcurveto
          63 -55 rlineto
          32 22 23 14 28 hhcurveto
          33 36 -16 -15 30 hvcurveto
          hintmask 10000000
          -17 36 38 -18 47 hhcurveto
          49 54 30 73 41 hvcurveto
          -63 55 rlineto
          -32 -22 -23 -14 -28 hhcurveto
          endchar
        </CharString>
        <CharString name="asterisk">
          -122 389 -21 318 -20 hstem
          260 527 rmoveto
          98 35 -50 86 -75 -68 9 106 rlineto
          -94 hlineto
          10 -107 -76 70 -47 -87 97 -36 -98 -35 49 -84 75 69 -10 -108 rlineto
          95 hlineto
          -10 105 74 -66 51 82 rlineto
          endchar
        </CharString>
        <CharString name="at">
          286 -86 98 88 94 221 89 78 98 hstem
          36 112 78 110 121 104 106 108 vstem
          441 415 rmoveto
          8 7 0 -3 7 hvcurveto
          -11 -139 rlineto
          -46 -3 -26 -35 -35 hhcurveto
          -34 -18 28 53 82 45 60 60 hvcurveto
          173 -361 rmoveto
          -25 -72 -69 -17 -63 hhcurveto
          -123 -139 55 215 186 105 114 183 158 73 -88 -135 -100 -19 -65 -44 -33 -10 10 26 4 0 15 1 12 hvcurveto
          18 208 rlineto
          22 -50 -47 13 -43 hhcurveto
          -121 -93 -95 -143 -107 64 -59 89 41 45 28 31 23 hvcurveto
          -35 16 45 -23 37 hhcurveto
          132 57 90 167 197 -111 125 -226 -253 -149 -163 -237 -261 159 -105 199 80 85 19 35 80 hvcurveto
          endchar
        </CharString>
        <CharString name="atilde">
          -81 callgsubr
          51 -21 80 51 -51 94 -53 -59 callgsubr
          hintmask 0000010010000000
          -79 callsubr
          hintmask 0011100001100000
          -107 callgsubr
          hintmask 0101100001100000
          -47 callgsubr
          hintmask 0011100001100000
          -100 callgsubr
          89 605 rmoveto
          -78 callsubr
          hintmask 1001100001100000
          -65 callsubr
          -77 callgsubr
          hintmask 0000001000000000
          -49 54 rlineto
          hintmask 0000000100000000
          -27 -22 -18 -8 -15 hhcurveto
          endchar
        </CharString>
        <CharString name="b">
          26 -13 -10 callsubr
          179 -20 hstem
          52 140 175 141 vstem
          192 701 rmoveto
          -140 -679 hlineto
          -18 41 96 -17 75 hhcurveto
          176 68 -26 callsubr
          -99 -44 callgsubr
        </CharString>
        <CharString name="backslash">
          -87 -97 1 callgsubr
          302 -118 rmoveto
          107 29 -285 851 -105 -31 rlineto
          endchar
        </CharString>
        <CharString name="bar">
          -281 -22 -21 737 -20 hstem
          59 116 vstem
          59 -43 rmoveto
          116 737 -116 hlineto
          endchar
        </CharString>
        <CharString name="braceleft">
          -19 callsubr
          91 116 cntrmask 11100000
          161 312 rmoveto
          33 29 11 55 1 54 2 129 rcurveline
          18 1 62 39 vhcurveto
          95 95 -89 hlineto
          -98 -61 -65 -108 -4 hvcurveto
          -2 -48 -1 -57 -2 -46 rrcurveto
          -31 -2 5 -35 -28 hhcurveto
          -43 -104 43 hlineto
          28 -5 -35 -31 2 hvcurveto
          2 -46 1 -57 2 -48 rrcurveto
          -108 4 61 -65 98 hhcurveto
          89 95 -95 hlineto
          -39 -1 62 18 hvcurveto
          -2 129 -1 54 -11 55 -33 29 rlinecurve
          endchar
        </CharString>
        <CharString name="braceright">
          -19 callsubr
          162 116 cntrmask 11100000
          208 312 rmoveto
          -33 -29 -11 -55 -1 -54 -2 -129 rcurveline
          -18 -1 -62 -39 vhcurveto
          -95 -95 89 hlineto
          98 61 65 108 4 hvcurveto
          2 48 1 57 2 46 rrcurveto
          31 2 -5 35 28 hhcurveto
          43 104 -43 hlineto
          -28 5 35 31 -2 hvcurveto
          -2 46 -1 57 -2 48 rrcurveto
          108 -4 -61 65 -98 hhcurveto
          -89 -95 95 hlineto
          39 1 -62 -18 hvcurveto
          2 -129 1 -54 11 -55 33 -29 rlinecurve
          endchar
        </CharString>
        <CharString name="bracketleft">
          -5 callgsubr
          58 131 vstem
          58 -131 rmoveto
          261 101 hlineto
          -130 6 rlineto
          664 vlineto
          130 8 rlineto
          100 -261 vlineto
          endchar
        </CharString>
        <CharString name="bracketright">
          -5 callgsubr
          157 131 vstem
          288 748 rmoveto
          -261 -100 hlineto
          130 -8 rlineto
          -664 vlineto
          -130 -6 rlineto
          -101 261 vlineto
          endchar
        </CharString>
        <CharString name="breve">
          -215 548 63 47 -20 hstem
          42 216 vstem
          110 658 rmoveto
          0 -68 0 0 vhcurveto
          -56 31 -54 76 76 33 55 55 0 -67 0 0 vhcurveto
          -19 -8 -28 -33 -31 -9 29 18 vhcurveto
          endchar
        </CharString>
        <CharString name="brokenbar">
          -279 -22 -21 737 -20 hstem
          60 116 vstem
          60 407 rmoveto
          116 287 -116 hlineto
          -737 vmoveto
          116 285 -116 hlineto
          endchar
        </CharString>
        <CharString name="bullet">
          -158 197 234 hstem
          62 233 vstem
          62 314 rmoveto
          -66 50 -51 66 67 50 51 66 66 -50 51 -67 -66 -50 -51 -66 vhcurveto
          endchar
        </CharString>
        <CharString name="c">
          -77 -13 -5 callsubr
          vstem
          271 -13 -80 callsubr
        </CharString>
        <CharString name="caron">
          -107 592 -21 171 -20 hstem
          125 742 -79 callgsubr
          -84 -85 rlineto
          endchar
        </CharString>
        <CharString name="ccedilla">
          -77 -209 -21 217 -5 callsubr
          67 121 vstem
          335 -57 -80 callgsubr
          -64 44 -80 callsubr
        </CharString>
        <CharString name="cedilla">
          -239 -274 -21 238 -20 hstem
          111 121 vstem
          214 -57 -80 callgsubr
          endchar
        </CharString>
        <CharString name="cent">
          -75 -36 211 321 223 hstem
          26 133 65 83 vstem
          311 719 rmoveto
          -90 hlineto
          6 -116 rlineto
          -113 -14 -88 -80 -171 vvcurveto
          -170 91 -80 110 -15 vhcurveto
          -6 -109 rlineto
          90 hlineto
          -6 108 34 4 31 7 35 11 rlinecurve
          -75 callsubr
          -36 10 -31 8 -35 3 rlinecurve
          endchar
        </CharString>
        <CharString name="circumflex">
          -135 612 -21 171 -20 hstem
          190 676 -101 callsubr
        </CharString>
        <CharString name="colon">
          -249 -7 165 132 165 hstem
          52 164 vstem
          133 -52 callgsubr
          44 -37 37 -44 hvcurveto
          2 297 -46 callsubr
          -87 callsubr
          hvcurveto
          endchar
        </CharString>
        <CharString name="comma">
          -71 callsubr
        </CharString>
        <CharString name="copyright">
          201 -18 63 53 59 281 60 57 67 hstem
          38 74 83 70 338 75 vstem
          476 466 rmoveto
          20 -30 -37 12 -41 hhcurveto
          -88 -85 -59 -141 -141 85 -59 88 37 42 13 24 34 hvcurveto
          -22 49 rlineto
          -18 -31 -30 -9 -29 hhcurveto
          -52 -52 37 104 104 52 36 52 31 25 -7 -17 27 hvcurveto
          226 -112 -83 callgsubr
          endchar
        </CharString>
        <CharString name="currency">
          22 -11 -21 79 89 230 88 78 -20 hstem
          67 94 225 94 vstem
          100 -32 rmoveto
          11 14 18 23 12 16 12 15 13 17 12 15 rrcurveto
          -13 27 32 -8 37 hhcurveto
          35 25 3 14 27 hvcurveto
          73 -96 69 53 -13 16 -21 28 -15 19 rlinecurve
          -9 11 -8 9 -8 11 rrcurveto
          32 37 19 51 47 vvcurveto
          48 -20 53 -34 37 vhcurveto
          70 91 -68 53 -21 -25 -31 -40 -22 -29 rlinecurve
          11 -24 -28 5 -28 hhcurveto
          -33 -32 -7 -11 -26 hvcurveto
          -75 96 -69 -53 9 -12 17 -21 11 -13 rlinecurve
          14 -17 13 -15 12 -17 rrcurveto
          -31 -38 -17 -49 -47 vvcurveto
          -44 16 -48 27 -36 vhcurveto
          -79 -101 rlineto
          243 115 rmoveto
          -66 -47 50 64 64 47 52 66 65 47 -52 -64 -64 -47 -50 -65 hvcurveto
          endchar
        </CharString>
        <CharString name="d">
          19 -9 105 -82 -21 419 110 188 -20 hstemhm
          34 134 173 -36 callgsubr
          hintmask 10111100
          34 244 rmoveto
          hintmask 01111100
          -150 60 -103 130 45 50 13 27 38 vhcurveto
          8 -38 rlineto
          116 717 -141 -206 hlineto
          11 -21 -43 7 -25 hhcurveto
          -168 -49 -126 -152 hvcurveto
          307 -125 rmoveto
          -15 -3 callgsubr
          81 -6 callsubr
          hvcurveto
          endchar
        </CharString>
        <CharString name="dagger">
          -97 21 -21 669 -20 hstemhm
          24 220 -81 231 hintmask 00000000
          hintmask 11010000
          394 480 rmoveto
          -162 -15 27 204 rlineto
          -110 hlineto
          27 -204 -152 15 rlineto
          hintmask 11100000
          -88 vlineto
          152 15 -25 -407 rlineto
          106 hlineto
          -25 407 162 -15 rlineto
          endchar
        </CharString>
        <CharString name="daggerdbl">
          -96 21 -21 674 -20 hstem
          254 341 rmoveto
          -21 118 143 -13 rlineto
          79 vlineto
          -143 -14 24 163 rlineto
          -94 hlineto
          23 -163 -143 14 rlineto
          -79 vlineto
          143 13 -20 -118 20 -126 -143 13 rlineto
          -78 vlineto
          143 13 -23 -163 rlineto
          94 hlineto
          -24 163 143 -13 rlineto
          78 vlineto
          -143 -13 rlineto
          endchar
        </CharString>
        <CharString name="degree">
          -204 443 64 111 65 hstem
          35 69 104 68 vstem
          276 565 rmoveto
          62 -38 56 -83 -81 -39 -57 -62 -63 37 -58 82 83 39 61 61 vhcurveto
          -68 -1 rmoveto
          -28 -11 -29 -42 -38 -13 29 26 28 13 28 38 42 11 -28 -26 vhcurveto
          endchar
        </CharString>
        <CharString name="dieresis">
          -157 596 139 hstem
          17 138 46 138 vstem
          86 735 -98 callgsubr
          37 -30 31 -39 hvcurveto
          -104 callgsubr
          endchar
        </CharString>
        <CharString name="divide">
          22 51 129 43 109 40 129 hstem
          203 130 vstem
          270 501 -34 callgsubr
          227 -169 -2 callgsubr
          -227 -43 -34 callgsubr
          endchar
        </CharString>
        <CharString name="dollar">
          -22 -111 221 453 223 hstem
          39 139 28 87 37 139 vstem
          205 -111 rmoveto
          91 hlineto
          -4 102 rlineto
          111 17 66 76 103 vvcurveto
          -76 callsubr
          -54 19 -50 13 -47 4 rlinecurve
          4 107 rlineto
          -91 hlineto
          4 -109 rlineto
          -100 -15 -69 -65 -96 vvcurveto
          -125 76 -38 90 -42 vhcurveto
          -62 callgsubr
          46 -22 74 -17 62 -5 rlinecurve
          endchar
        </CharString>
        <CharString name="dotaccent">
          -295 515 165 hstem
          28 164 vstem
          111 680 -46 callsubr
          -87 callsubr
          hvcurveto
          endchar
        </CharString>
        <CharString name="dotlessi">
          -30 callgsubr
          hstem
          53 140 vstem
          -25 callsubr
          endchar
        </CharString>
        <CharString name="e">
          -48 callgsubr
          hstem
          -31 callsubr
          vstem
          435 242 -98 callsubr
          -85 callgsubr
        </CharString>
        <CharString name="eacute">
          -48 callgsubr
          80 -21 27 3 callgsubr
          25 -20 hstemhm
          -31 callsubr
          -35 callgsubr
          hintmask 0001001000000000
          377 663 -90 callgsubr
          hintmask 0000110000000000
          34 -78 rlineto
          262 -345 -86 callgsubr
        </CharString>
        <CharString name="ecircumflex">
          -48 callgsubr
          80 -21 146 -20 hstemhm
          -31 callsubr
          hintmask 00000000
          hintmask 00011000
          164 242 rmoveto
          -111 1 56 -39 71 hhcurveto
          40 43 7 16 42 hvcurveto
          24 -95 rlineto
          -22 -51 -59 -11 -61 hhcurveto
          -186 -51 131 148 137 74 119 155 120 66 -68 -112 -30 -6 -43 -7 -27 hvcurveto
          -99 76 rmoveto
          6 vlineto
          61 -23 38 -47 -78 -18 -75 -30 -5 vhcurveto
          hintmask 11100110
          91 358 -101 callsubr
        </CharString>
        <CharString name="edieresis">
          -48 callgsubr
          74 -16 callgsubr
          33 131 -68 -17 callgsubr
          -82 112 -35 callgsubr
          hintmask 0001000110000000
          165 735 -97 callgsubr
          hintmask 0000101001000000
          -106 callsubr
          85 -493 -98 callsubr
          hintmask 1110010000100000
          -85 callgsubr
        </CharString>
        <CharString name="egrave">
          -48 callgsubr
          76 -21 31 -21 167 -20 40 -20 hstemhm
          -31 callsubr
          -35 callgsubr
          hintmask 0001010000000000
          334 587 -77 callsubr
          hintmask 0000101000000000
          -39 callsubr
          305 -421 -86 callgsubr
        </CharString>
        <CharString name="eight">
          3 -12 116 463 114 hstemhm
          37 130 -100 124 140 124 -105 130 hintmask 00000000
          hintmask 11100100
          263 -12 rmoveto
          151 66 99 103 80 -42 52 -76 37 hvcurveto
          66 39 27 56 61 vvcurveto
          106 -76 60 -116 -112 -84 -60 -117 -63 26 -50 54 -33 vhcurveto
          -67 -40 -43 -65 -66 vvcurveto
          -121 75 -78 151 vhcurveto
          hintmask 11011000
          579 vmoveto
          36 32 -19 -43 -29 -23 -50 -42 -24 hvcurveto
          -40 19 -35 39 47 vvcurveto
          44 37 16 35 vhcurveto
          -20 -262 rmoveto
          hintmask 11100100
          53 -21 54 -26 -64 vvcurveto
          -51 -34 -39 -57 -52 -40 30 56 52 28 43 39 24 vhcurveto
          hintmask 11011000
          1 -1 0 0 0 vvcurveto
          1 5 -2 -1 3 hvcurveto
          endchar
        </CharString>
        <CharString name="ellipsis">
          187 -7 165 -164 123 hstemhm
          39 164 -135 122 80 164 -144 122 88 164 -152 122 hintmask 00000000
          hintmask 01010101
          122 -52 callgsubr
          hvcurveto
          hintmask 10100000
          0 callsubr
          231 -24 callgsubr
          hintmask 10001000
          0 callsubr
          230 -24 callgsubr
          hintmask 10000010
          0 callsubr
          endchar
        </CharString>
        <CharString name="emdash">
          194 -13 callgsubr
          658 332 rmoveto
          -607 -109 607 hlineto
          endchar
        </CharString>
        <CharString name="endash">
          44 -13 callgsubr
          508 332 -2 callgsubr
          endchar
        </CharString>
        <CharString name="equal">
          -27 128 108 88 107 hstem
          433 431 rmoveto
          -378 -107 378 hlineto
          -88 vmoveto
          -378 -108 378 hlineto
          endchar
        </CharString>
        <CharString name="eth">
          -16 -12 116 247 108 305 -20 hstem
          35 134 153 139 vstem
          249 -12 rmoveto
          119 93 70 249 179 -43 109 -86 61 hvcurveto
          47 48 -58 60 -67 -70 rlineto
          17 -51 -61 8 -71 hhcurveto
          -18 -92 39 -2 41 -3 38 -11 rlinecurve
          -57 -58 60 -58 74 76 31 -28 24 -43 8 -63 rlinecurve
          17 -29 -40 5 -25 hhcurveto
          -106 -76 -65 -150 -142 68 -114 146 hvcurveto
          73 347 rmoveto
          -189 -29 -42 -47 -50 -27 48 92 76 31 30 40 1 vhcurveto
          31 29 -5 -11 22 hvcurveto
          endchar
        </CharString>
        <CharString name="exclam">
          -267 -7 165 544 -20 hstemhm
          43 164 -147 126 hintmask 00000000
          hintmask 11010000
          197 702 -15 callgsubr
          hintmask 11100000
          19 -486 rlineto
          105 hlineto
          -49 -58 -46 callsubr
          -87 callsubr
          hvcurveto
          endchar
        </CharString>
        <CharString name="exclamdown">
          -275 -157 -21 544 165 hstemhm
          37 164 -143 125 hintmask 00000000
          hintmask 11010000
          47 -178 rmoveto
          146 hlineto
          hintmask 11100000
          -19 486 rlineto
          -105 hlineto
          49 58 rmoveto
          47 36 37 44 46 -36 38 -47 -44 -37 -38 -46 -44 37 -37 44 hvcurveto
          endchar
        </CharString>
        <CharString name="f">
          -106 -165 -21 602 -9 callgsubr
          109 140 vstem
          474 713 rmoveto
          15 -46 -47 9 -41 hhcurveto
          -156 -74 -58 -139 -65 callgsubr
          -37 callgsubr
          endchar
        </CharString>
        <CharString name="fi">
          101 -165 -21 207 -21 416 -9 callgsubr
          109 140 175 140 vstem
          564 524 -30 callsubr
          -175 15 hlineto
          61 11 35 96 27 50 -2 -8 34 vhcurveto
          29 100 rlineto
          15 -46 -62 9 -41 hhcurveto
          -163 -74 -58 -139 -65 callgsubr
          175 -416 140 vlineto
          endchar
        </CharString>
        <CharString name="five">
          -32 -13 118 225 120 104 115 hstem
          65 117 135 134 vstem
          28 48 rmoveto
          -44 72 68 -17 59 hhcurveto
          150 74 110 133 142 -84 78 -103 -24 -34 -6 -17 -24 hvcurveto
          127 232 115 -349 -345 vlineto
          73 -35 rlineto
          27 27 36 14 28 hhcurveto
          48 40 -33 -71 -92 -46 -29 -51 -59 -68 31 11 -22 hvcurveto
          endchar
        </CharString>
        <CharString name="fl">
          212 -165 -21 194 -21 429 96 117 116 hstem
          109 140 223 141 vstem
          710 -44 callsubr
          547 vlineto
          24 -73 -96 21 -84 hhcurveto
          -135 -115 -41 -164 -65 callgsubr
          134 vlineto
          9 96 rlineto
          -143 15 hlineto
          67 11 35 105 26 47 -2 -13 34 vhcurveto
          -453 -45 callgsubr
        </CharString>
        <CharString name="florin">
          109 -243 114 545 -9 callgsubr
          242 140 vstem
          242 -33 rmoveto
          -61 -11 -35 -89 -27 -35 2 8 -34 vhcurveto
          -29 -100 rlineto
          -15 46 47 -9 41 hhcurveto
          156 75 58 139 hvcurveto
          462 -37 callgsubr
          29 100 rlineto
          15 -46 -47 9 -41 hhcurveto
          -156 -74 -58 -139 -53 callsubr
          endchar
        </CharString>
        <CharString name="four">
          53 21 -21 176 95 398 -20 hstem
          307 134 vstem
          545 176 rmoveto
          95 -104 398 -156 vlineto
          -266 -419 rlineto
          -74 289 -176 133 176 vlineto
          -133 95 rmoveto
          -142 hlineto
          141 234 rlineto
          endchar
        </CharString>
        <CharString name="fraction">
          -128 -63 1 callgsubr
          388 765 -38 callsubr
        </CharString>
        <CharString name="g">
          -25 -244 104 117 100 59 109 174 106 -5 -20 35 -20 hstemhm
          15 116 -95 125 -79 79 137 125 -64 119 -35 callgsubr
          hintmask 1111001000100000
          283 -23 rmoveto
          62 14 -18 -26 -51 -43 -22 -77 -59 -49 12 44 23 15 26 36 12 hvcurveto
          hintmask 1110011001000000
          48 442 rmoveto
          49 19 -28 -62 -59 -20 -25 -48 -48 -21 25 59 62 23 28 46 hvcurveto
          -116 -393 rmoveto
          -64 -29 -35 -50 -51 vvcurveto
          -90 78 -50 134 vhcurveto
          hintmask 1110101001000000
          153 98 72 119 81 -60 49 -103 hvcurveto
          -86 hlineto
          -40 -17 10 23 8 2 11 4 12 hvcurveto
          -4 16 18 -1 19 hhcurveto
          128 64 85 109 38 -12 41 -23 32 hvcurveto
          hintmask 1111000101000000
          34 5 36 4 34 8 -12 77 rcurveline
          -11 -64 -55 -4 -46 hhcurveto
          hintmask 1111000011000000
          -28 -32 5 -28 hhcurveto
          hintmask 1111001000100000
          -131 -60 -85 -110 -67 27 -62 49 -35 hvcurveto
          -21 -28 -9 -27 -24 vvcurveto
          -27 12 -21 20 -13 vhcurveto
          endchar
        </CharString>
        <CharString name="germandbls">
          89 -108 -21 116 109 516 108 hstemhm
          53 138 166 27 -27 134 -31 126 hintmask 00000000
          hintmask 11111010
          384 373 rmoveto
          57 107 29 97 vvcurveto
          93 -61 71 -140 -145 -92 -69 -156 vhcurveto
          -624 138 622 vlineto
          83 29 36 68 47 22 -19 -45 vhcurveto
          hintmask 11110100
          -58 -104 -23 -102 -159 207 14 -75 vvcurveto
          -29 -17 -20 -36 -38 -46 13 26 -62 vhcurveto
          -35 -98 rlineto
          -25 36 84 -25 56 hhcurveto
          113 71 63 103 96 -79 33 -68 30 hvcurveto
          hintmask 11111010
          1 hlineto
          -32 14 -24 10 37 vvcurveto
          endchar
        </CharString>
        <CharString name="grave">
          -172 608 3 callgsubr
          hstem
          262 587 rmoveto
          34 78 -189 109 -43 callsubr
        </CharString>
        <CharString name="greater">
          -76 81 -21 442 -20 hstem
          408 324 rmoveto
          -356 178 rlineto
          -122 vlineto
          208 -99 -208 -101 rlineto
          -120 vlineto
          356 176 rlineto
          endchar
        </CharString>
        <CharString name="guillemotleft">
          45 82 -14 callsubr
          525 421 -55 callgsubr
          -139 142 rlineto
          -92 145 -55 callgsubr
          -140 142 rlineto
          endchar
        </CharString>
        <CharString name="guillemotright">
          46 84 -14 callsubr
          176 278 rmoveto
          -139 -61 callgsubr
          371 -145 rmoveto
          -140 -61 callgsubr
          endchar
        </CharString>
        <CharString name="guilsinglleft">
          -185 84 -14 callsubr
          293 423 -55 callgsubr
          -140 142 rlineto
          endchar
        </CharString>
        <CharString name="guilsinglright">
          -185 84 -14 callsubr
          177 278 rmoveto
          -140 -61 callgsubr
          endchar
        </CharString>
        <CharString name="h">
          31 -23 callgsubr
          184 1 callsubr
          157 146 vstem
          193 706 rmoveto
          -140 -9 rlineto
          -697 140 371 vlineto
          -43 callgsubr
          146 4 callgsubr
          -27 75 -126 -53 -60 -26 -29 -37 vhcurveto
          endchar
        </CharString>
        <CharString name="hungarumlaut">
          19 515 -21 232 -20 hstem
          266 644 -12 callsubr
          378 150 -12 callsubr
          endchar
        </CharString>
        <CharString name="hyphen">
          -6 -13 callgsubr
          458 332 -10 callgsubr
        </CharString>
        <CharString name="i">
          -269 21 -21 594 165 hstemhm
          40 153 -140 -36 callgsubr
          hintmask 11100000
          -25 callsubr
          -70 759 -46 callsubr
          hvcurveto
          hintmask 11010000
          -87 callsubr
          vhcurveto
          endchar
        </CharString>
        <CharString name="iacute">
          -30 callgsubr
          104 3 callgsubr
          25 -20 hstemhm
          53 -36 callgsubr
          hintmask 10001100
          276 663 -90 callgsubr
          hintmask 00110000
          34 -78 rlineto
          121 -63 -30 callsubr
          -512 vlineto
          hintmask 11000100
          140 hlineto
          endchar
        </CharString>
        <CharString name="icircumflex">
          -269 21 -21 612 -21 136 -20 55 -20 hstemhm
          79 91 hintmask 00000000
          hintmask 10101000
          127 676 -102 callgsubr
          hintmask 01010000
          150 -591 rmoveto
          -140 512 hlineto
          140 12 rlineto
          endchar
        </CharString>
        <CharString name="idieresis">
          -30 callgsubr
          92 -16 callgsubr
          -32 138 -124 110 -39 140 -46 110 -105 138 -35 callgsubr
          hintmask 1101010100000000
          37 735 rmoveto
          hintmask 1101100100000000
          -97 callsubr
          37 -30 31 -39 hvcurveto
          185 hmoveto
          hintmask 1101010010000000
          -103 callgsubr
          hintmask 1110001000000000
          -29 -211 -30 callsubr
          -512 140 vlineto
          endchar
        </CharString>
        <CharString name="igrave">
          -30 callgsubr
          94 -21 31 -21 167 -20 40 -20 hstemhm
          53 -36 callgsubr
          hintmask 00101000
          185 587 -77 callsubr
          hintmask 00010100
          -39 callsubr
          212 -139 -30 callsubr
          -512 vlineto
          hintmask 11000010
          140 hlineto
          endchar
        </CharString>
        <CharString name="j">
          -271 -186 -21 800 169 hstemhm
          38 168 hintmask 00000000
          hintmask 11100000
          192 522 rmoveto
          -139 -14 rlineto
          -448 vlineto
          -104 -36 -39 -94 -16 vhcurveto
          11 -108 rlineto
          165 8 93 84 166 vvcurveto
          -69 711 rmoveto
          -48 -37 -38 -45 -47 37 -39 48 45 38 39 47 45 -38 38 -45 hvcurveto
          endchar
        </CharString>
        <CharString name="k">
          39 21 -21 709 1 callsubr
          vstem
          363 512 rmoveto
          -170 -219 rlineto
          416 vlineto
          -140 -10 rlineto
          -699 140 261 vlineto
          201 -261 rlineto
          160 hlineto
          -224 281 185 231 rlineto
          endchar
        </CharString>
        <CharString name="l">
          -206 8 -21 713 -20 hstem
          54 141 vstem
          292 -44 callsubr
          547 -141 -539 -45 callgsubr
        </CharString>
        <CharString name="less">
          -76 81 -21 442 -20 hstem
          31 236 rmoveto
          356 -176 rlineto
          120 vlineto
          -208 101 208 99 rlineto
          122 vlineto
          -356 -178 rlineto
          endchar
        </CharString>
        <CharString name="logicalnot">
          51 225 217 -109 109 hstemhm
          398 110 hintmask 00000000
          hintmask 10100000
          508 225 rmoveto
          217 vlineto
          hintmask 01100000
          -457 -109 347 -108 hlineto
          endchar
        </CharString>
        <CharString name="lslash">
          -75 8 -21 287 109 317 -20 hstem
          105 141 vstem
          343 -44 callsubr
          121 180 109 -180 317 -141 -317 -81 -109 81 -113 -45 callgsubr
        </CharString>
        <CharString name="m">
          321 -23 callgsubr
          -16 callsubr
          157 140 156 140 vstem
          343 522 rmoveto
          -65 -67 -35 -31 -31 hvcurveto
          -12 57 rlineto
          -115 -513 140 371 hlineto
          -43 callgsubr
          140 350 vlineto
          7 0 7 -1 7 vhcurveto
          -43 callgsubr
          140 4 callgsubr
          -23 75 -124 -66 -68 -35 -34 -33 vhcurveto
          42 -20 -29 27 -80 hhcurveto
          endchar
        </CharString>
        <CharString name="macron">
          17 541 109 hstem
          487 650 rmoveto
          -442 -109 442 hlineto
          endchar
        </CharString>
        <CharString name="minus">
          7 -13 callgsubr
          467 332 rmoveto
          -412 -109 412 hlineto
          endchar
        </CharString>
        <CharString name="mu">
          88 -180 -21 190 112 -83 -21 516 -20 hstemhm
          61 -33 callgsubr
          hintmask 00000000
          hintmask 11011100
          374 53 rmoveto
          -48 18 35 -16 46 hhcurveto
          -74 callgsubr
          -84 callsubr
          391 -140 -381 vlineto
          -85 callsubr
          -714 140 207 vlineto
          hintmask 10111100
          -7 16 16 -2 16 hhcurveto
          51 47 29 27 27 hvcurveto
          endchar
        </CharString>
        <CharString name="multiply">
          1 94 -21 433 -20 hstem
          477 152 rmoveto
          -139 140 137 136 -80 78 -138 -137 -137 137 -79 -79 138 -137 -140 -140 80 -77 140 140 140 -138 rlineto
          endchar
        </CharString>
        <CharString name="n">
          31 -23 callgsubr
          hstem
          53 143 160 140 vstem
          346 522 rmoveto
          -65 -63 -34 -32 -35 hvcurveto
          -12 57 rlineto
          -4 callgsubr
          -33 callsubr
          -37 callsubr
        </CharString>
        <CharString name="nine">
          -15 -12 122 108 115 230 116 hstem
          33 134 153 139 vstem
          247 679 rmoveto
          -146 -68 -114 -130 -152 76 -65 106 20 45 10 26 29 hvcurveto
          -104 -18 -54 -40 -59 hhcurveto
          -21 -38 3 10 -27 hvcurveto
          -31 -107 rlineto
          -22 49 46 -6 30 hhcurveto
          158 115 134 262 225 -93 70 -119 hvcurveto
          73 -323 rmoveto
          -13 -22 -29 -10 -31 hhcurveto
          -40 1 -31 30 71 vvcurveto
          80 27 48 50 47 29 -42 -165 vhcurveto
          endchar
        </CharString>
        <CharString name="ntilde">
          31 -23 callgsubr
          -9 -20 141 -8 callsubr
          46 143 -136 143 153 140 -133 140 -35 callgsubr
          hintmask 1101010100000000
          335 685 rmoveto
          hintmask 1100110100000000
          -88 callgsubr
          hintmask 1101010100000000
          -89 callsubr
          11 -163 rmoveto
          -65 -63 -34 -32 -35 hvcurveto
          hintmask 1010110100000000
          -12 57 rlineto
          hintmask 1010101100000000
          -4 callgsubr
          hintmask 1100110100000000
          -33 callsubr
          hintmask 1100110010000000
          -37 callsubr
        </CharString>
        <CharString name="numbersign">
          127 8 -21 185 105 95 104 192 -20 hstem
          355 277 rmoveto
          -105 hlineto
          17 95 rlineto
          105 hlineto
          229 -200 rmoveto
          105 -135 vlineto
          17 95 rlineto
          118 104 -100 -19 callgsubr
          -105 -19 callgsubr
          -130 -104 112 hlineto
          -17 -95 rlineto
          -101 -105 82 -18 callsubr
          105 -18 callsubr
          endchar
        </CharString>
        <CharString name="o">
          -50 callgsubr
          hstem
          -50 callsubr
          vstem
          -76 callgsubr
          endchar
        </CharString>
        <CharString name="oacute">
          -50 callgsubr
          80 -21 27 3 callgsubr
          25 -20 hstemhm
          -50 callsubr
          hintmask 00000000
          hintmask 00100100
          -91 callsubr
          hvcurveto
          hintmask 11000011
          -82 callgsubr
          152 249 -90 callgsubr
          hintmask 00011000
          -42 callgsubr
        </CharString>
        <CharString name="ocircumflex">
          -50 callgsubr
          78 -21 177 -20 hstemhm
          -50 callsubr
          -51 callgsubr
          250 -13 rmoveto
          -121 -96 70 197 197 101 71 122 128 94 -69 -198 -196 -100 -72 -128 hvcurveto
          6 427 rmoveto
          -50 -38 -25 -135 -127 38 -33 49 50 37 33 127 135 -36 25 -50 hvcurveto
          hintmask 11001100
          -3 262 -101 callsubr
        </CharString>
        <CharString name="odieresis">
          -50 callgsubr
          74 -16 callgsubr
          33 135 -76 -17 callgsubr
          -72 -1 callsubr
          hintmask 0010001100000000
          -91 callsubr
          hvcurveto
          hintmask 1100100001000000
          -82 callgsubr
          -95 321 -97 callgsubr
          hintmask 0001010010000000
          -105 callgsubr
        </CharString>
        <CharString name="oe">
          288 -13 107 148 76 105 99 hstem
          33 135 178 136 177 112 vstem
          758 242 -70 callsubr
          -73 -55 -26 -55 -38 vhcurveto
          61 -39 -58 20 -66 hhcurveto
          -46 callgsubr
          -40 callsubr
          66 59 20 60 41 hvcurveto
          -53 37 56 -27 84 hhcurveto
          -29 callgsubr
          hvcurveto
          -64 callsubr
          -76 -40 callgsubr
          -226 172 rmoveto
          54 -58 callgsubr
          -54 -71 callgsubr
          227 -96 rmoveto
          30 5 18 75 83 -57 callsubr
        </CharString>
        <CharString name="ogonek">
          -206 -243 109 -109 230 hstemhm
          45 115 hintmask 00000000
          hintmask 10100000
          106 -13 rmoveto
          -38 -32 -23 -51 -46 vvcurveto
          -54 32 -47 81 35 35 11 14 34 vhcurveto
          -18 93 rlineto
          -6 -19 -16 -3 -12 hhcurveto
          -25 -12 12 17 hvcurveto
          hintmask 01100000
          24 18 34 38 34 vhcurveto
          endchar
        </CharString>
        <CharString name="ograve">
          -50 callgsubr
          80 -21 27 -21 140 -20 67 -20 hstemhm
          -50 callsubr
          hintmask 00000000
          hintmask 00101000
          -91 callsubr
          hvcurveto
          hintmask 11000011
          -82 callgsubr
          79 173 -77 callsubr
          hintmask 00010100
          -43 callsubr
        </CharString>
        <CharString name="one">
          -138 22 -21 667 -20 hstem
          174 139 vstem
          313 1 rmoveto
          667 -108 vlineto
          -198 -86 44 -99 123 53 rlineto
          -535 vlineto
          endchar
        </CharString>
        <CharString name="onehalf">
          326 -63 -21 82 88 0 248 0 88 265 -20 129 -20 hstem
          136 103 463 95 vstem
          239 272 -55 callsubr
          397 -274 -69 callgsubr
          12 27 hhcurveto
          25 18 -10 -32 -35 callsubr
          72 692 -38 callsubr
        </CharString>
        <CharString name="onequarter">
          359 -63 -21 105 -21 109 72 506 -20 129 -20 hstemhm
          136 103 450 95 hintmask 00000000
          hintmask 01110110
          847 109 -2 callsubr
          -32 callgsubr
          -66 hlineto
          66 124 rlineto
          -450 -33 -55 callsubr
          485 493 -49 callgsubr
          rlineto
          hintmask 10001000
          -20 callsubr
        </CharString>
        <CharString name="onesuperior">
          -195 272 -21 415 -20 hstem
          129 103 vstem
          232 251 -55 callsubr
          endchar
        </CharString>
        <CharString name="ordfeminine">
          -173 403 64 -42 -21 124 43 66 66 hstemhm
          34 76 77 78 hintmask 00000000
          hintmask 01111100
          249 404 rmoveto
          10 26 3 14 25 hvcurveto
          -11 50 rlineto
          hintmask 10111100
          -3 -8 -8 -1 -6 hhcurveto
          -6 -6 3 9 hvcurveto
          117 vlineto
          77 -29 30 -76 -24 -48 -7 -19 -31 vhcurveto
          18 -53 rlineto
          6 19 25 7 21 hhcurveto
          29 18 -4 -38 hvcurveto
          -26 vlineto
          2 -19 -18 0 -14 hhcurveto
          -36 -65 -13 -72 -1 hvcurveto
          -51 32 -32 51 32 31 12 13 17 vhcurveto
          hintmask 01111100
          -16 11 16 -8 25 hhcurveto
          -106 55 rmoveto
          -18 -15 9 26 25 20 9 32 hvcurveto
          5 5 -1 5 hhcurveto
          10 -55 hlineto
          -8 -13 -19 -5 -12 hhcurveto
          endchar
        </CharString>
        <CharString name="ordmasculine">
          -190 402 63 174 64 hstem
          37 79 93 79 vstem
          160 402 rmoveto
          72 56 41 110 111 -53 39 -72 -69 -57 -40 -111 -111 54 -39 69 hvcurveto
          3 237 rmoveto
          27 19 -14 -73 -69 -20 -18 -27 -26 -20 18 69 73 20 14 27 hvcurveto
          endchar
        </CharString>
        <CharString name="oslash">
          -4 -57 -21 65 107 320 108 75 -20 hstem
          -50 callsubr
          vstem
          169 hmoveto
          -8 25 27 -5 29 hhcurveto
          128 100 72 196 110 -29 70 -48 41 hvcurveto
          41 85 -75 36 -40 -83 rlineto
          5 -22 -24 3 -25 hhcurveto
          -46 callgsubr
          -100 25 -67 39 -42 hvcurveto
          -43 -88 77 -35 rlineto
          124 172 rmoveto
          -13 -12 2 6 -11 hvcurveto
          116 238 rlineto
          5 -22 2 -28 -36 vvcurveto
          -127 -37 -33 -50 vhcurveto
          2 callsubr
          7 7 -1 -1 7 hvcurveto
          -105 -215 rlineto
          -2 16 -2 19 22 vvcurveto
          135 38 25 50 vhcurveto
          endchar
        </CharString>
        <CharString name="otilde">
          -50 callgsubr
          65 53 -6 -8 callsubr
          -50 callsubr
          hintmask 00000000
          hintmask 11100110
          -76 callgsubr
          hintmask 11010110
          66 271 -93 callsubr
        </CharString>
        <CharString name="p">
          23 -192 -21 200 -10 callsubr
          -16 callsubr
          174 138 vstem
          316 522 rmoveto
          -66 -47 -36 -14 -18 hvcurveto
          -12 41 rlineto
          -120 -726 hlineto
          140 16 rlineto
          202 vlineto
          -10 25 31 -8 27 hhcurveto
          177 52 130 149 152 -61 104 -128 hvcurveto
          -123 -139 rmoveto
          14 23 26 11 30 hhcurveto
          78 17 -70 -76 -90 -26 -72 -88 -17 -23 2 5 -20 hvcurveto
          endchar
        </CharString>
        <CharString name="paragraph">
          -9 -141 -21 766 64 hstemhm
          21 237 -78 78 74 74 hintmask 00000000
          hintmask 11011000
          478 604 rmoveto
          64 -298 vlineto
          hintmask 11101000
          -88 -71 -70 -88 hvcurveto
          hintmask 11011000
          -88 71 -71 88 vhcurveto
          -513 78 766 74 -766 74 766 vlineto
          endchar
        </CharString>
        <CharString name="parenleft">
          -6 callgsubr
          31 133 vstem
          31 310 rmoveto
          -155 62 -146 104 -142 vhcurveto
          87 60 rlineto
          -70 118 -50 124 141 vvcurveto
          135 51 129 69 118 vhcurveto
          -87 60 rlineto
          -104 -142 -62 -146 -154 vvcurveto
          endchar
        </CharString>
        <CharString name="parenright">
          -6 callgsubr
          138 133 vstem
          271 310 rmoveto
          154 -62 146 -104 142 vhcurveto
          -87 -60 rlineto
          69 -118 51 -129 -135 vvcurveto
          -141 -50 -124 -70 -118 vhcurveto
          87 -60 rlineto
          104 142 62 146 155 vvcurveto
          endchar
        </CharString>
        <CharString name="percent">
          356 -20 callgsubr
          44 -29 callsubr
          310 -96 callsubr
        </CharString>
        <CharString name="period">
          -273 -7 165 hstem
          39 164 vstem
          122 -52 callgsubr
          44 -37 37 -44 hvcurveto
          endchar
        </CharString>
        <CharString name="periodcentered">
          -267 180 165 hstem
          42 164 vstem
          125 345 -46 callsubr
          -87 callsubr
          hvcurveto
          endchar
        </CharString>
        <CharString name="perthousand">
          643 -75 -21 84 66 254 67 260 67 82 -20 hstemhm
          23 -21 callsubr
          166 -21 callsubr
          40 -21 callsubr
          -35 callgsubr
          hintmask 0111011111100000
          173 315 -21 callgsubr
          162 161 -47 callsubr
          -162 -161 -36 callsubr
          320 rmoveto
          33 24 -23 -105 -106 -48 callsubr
          106 105 -22 callsubr
          467 -647 -21 callgsubr
          162 161 -47 callsubr
          -162 -161 -36 callsubr
          320 rmoveto
          33 24 -23 -105 -106 -48 callsubr
          106 105 -22 callsubr
          341 -320 -21 callgsubr
          162 161 -47 callsubr
          -162 -161 -36 callsubr
          320 rmoveto
          33 24 -23 -105 -106 -48 callsubr
          106 105 -22 callsubr
          -392 445 -49 callgsubr
          rlineto
          hintmask 1000100000000000
          -20 callsubr
        </CharString>
        <CharString name="plus">
          -32 -11 callgsubr
          186 111 vstem
          297 77 -70 callgsubr
          endchar
        </CharString>
        <CharString name="plus.001">
          -36 -11 callgsubr
          184 111 vstem
          295 77 -70 callgsubr
          endchar
        </CharString>
        <CharString name="plusminus">
          -4 1 109 223 110 145 -20 hstem
          200 111 vstem
          311 187 -70 callgsubr
          259 -77 -10 callgsubr
        </CharString>
        <CharString name="q">
          26 -201 -21 209 113 309 113 hstem
          33 141 175 140 vstem
          349 -213 rmoveto
          140 -9 rlineto
          706 vlineto
          21 -41 -88 17 -72 hhcurveto
          -183 -72 -110 -184 -160 83 -81 105 56 48 17 15 24 hvcurveto
          101 vmoveto
          -10 -23 -30 -10 -34 hhcurveto
          -57 -31 32 117 92 24 68 94 20 21 -3 -5 16 hvcurveto
          endchar
        </CharString>
        <CharString name="question">
          -149 -29 157 572 -20 hstem
          42 156 vstem
          121 128 rmoveto
          42 35 -35 -42 -44 -35 -36 -42 -45 -34 36 44 42 34 35 45 hvcurveto
          92 370 rmoveto
          -4 -36 -28 -26 -31 -28 -39 -38 -46 -47 -8 -72 rrcurveto
          -17 2 -38 1 -12 vhcurveto
          114 hlineto
          15 2 24 15 vvcurveto
          7 62 38 36 38 33 38 33 39 34 6 64 12 116 -117 76 -162 8 -25 -92 rcurveline
          101 -9 71 -31 -9 -70 rrcurveto
          endchar
        </CharString>
        <CharString name="questiondown">
          -154 -183 -21 575 157 hstem
          167 156 vstem
          244 371 rmoveto
          45 34 35 42 44 -34 36 -45 -42 -35 -36 -44 -42 35 -35 42 hvcurveto
          -93 -373 rmoveto
          4 36 28 26 31 28 39 38 46 47 8 72 rrcurveto
          17 -2 38 -1 12 vhcurveto
          -114 hlineto
          -15 -2 -24 -15 vvcurveto
          -7 -62 -38 -36 -38 -33 -38 -33 -39 -34 -6 -64 -12 -116 117 -76 162 -8 25 92 rcurveline
          -101 9 -71 31 9 70 rrcurveto
          endchar
        </CharString>
        <CharString name="quotedbl">
          -126 470 -21 251 -20 hstem
          49 108 75 -31 callgsubr
          57 hmoveto
          -34 callsubr
          endchar
        </CharString>
        <CharString name="quotedblbase">
          -107 4 callsubr
          hstem
          62 110 80 -86 callsubr
          190 -60 callsubr
        </CharString>
        <CharString name="quotedblleft">
          -104 476 244 hstem
          41 110 80 -63 callsubr
          190 hmoveto
          -78 callgsubr
          endchar
        </CharString>
        <CharString name="quotedblright">
          -71 -7 callsubr
          80 110 vstem
          414 642 rmoveto
          -104 callsubr
          -190 -60 callsubr
        </CharString>
        <CharString name="quoteleft">
          -294 476 244 hstem
          41 -63 callsubr
          endchar
        </CharString>
        <CharString name="quoteright">
          -261 -7 callsubr
          vstem
          224 642 rmoveto
          -104 callsubr
          endchar
        </CharString>
        <CharString name="quotesinglbase">
          -71 callsubr
        </CharString>
        <CharString name="quotesingle">
          -309 470 -21 251 -20 hstem
          49 -31 callgsubr
          endchar
        </CharString>
        <CharString name="r">
          -138 21 -21 410 114 -16 callsubr
          vstem
          374 519 rmoveto
          4 -17 -18 1 -11 hhcurveto
          -74 -48 -42 -34 -26 hvcurveto
          -11 65 rlineto
          -116 -513 140 363 hlineto
          30 21 38 17 56 hhcurveto
          14 14 -2 -4 15 hvcurveto
          endchar
        </CharString>
        <CharString name="registered">
          201 -18 63 407 45 58 67 hstem
          38 74 123 59 126 62 121 75 vstem
          678 302 -83 callgsubr
          -155 163 rmoveto
          24 -27 -32 8 -58 hhcurveto
          -96 -386 59 147 21 hlineto
          16 10 1 1 13 hvcurveto
          28 -43 45 -62 46 -50 42 31 rcurveline
          -32 36 -68 92 -3 6 11 4 11 6 11 9 rrcurveto
          25 20 12 35 37 vvcurveto
          34 -9 28 -25 22 vhcurveto
          -52 -144 rmoveto
          -12 -14 -22 -4 -46 hhcurveto
          -20 147 29 hlineto
          60 37 -13 -60 -28 -7 -18 -17 -12 hvcurveto
          endchar
        </CharString>
        <CharString name="ring">
          -218 597 63 78 64 hstem
          42 68 71 67 vstem
          248 701 -90 callsubr
          endchar
        </CharString>
        <CharString name="s">
          -25 callgsubr
          384 492 -83 callsubr
        </CharString>
        <CharString name="scaron">
          -25 callgsubr
          132 743 -79 callgsubr
          -84 -85 rlineto
          168 -166 -83 callsubr
        </CharString>
        <CharString name="section">
          -136 -193 -21 900 -20 hstemhm
          24 112 -48 111 -19 112 -48 112 hintmask 00000000
          hintmask 11010100
          207 479 rmoveto
          -5 11 -3 12 8 vvcurveto
          27 19 21 36 13 vhcurveto
          46 16 -23 99 -25 -6 -24 -6 -14 -5 rlinecurve
          -83 -30 -43 -57 -82 vvcurveto
          -22 5 -23 6 -20 vhcurveto
          1 -2 1 -3 1 -3 -27 -18 -21 -22 -12 -23 rrcurveto
          hintmask 11101000
          -12 -24 -6 -26 -27 vvcurveto
          -26 4 -25 10 -22 vhcurveto
          19 -43 26 -32 24 -38 24 -38 25 -33 16 -40 rrcurveto
          6 -10 2 -12 -9 vvcurveto
          -26 -19 -23 -35 -12 vhcurveto
          -47 -15 23 -97 24 3 21 5 18 7 rlinecurve
          49 19 43 36 17 35 rrcurveto
          12 24 6 28 29 vvcurveto
          22 -5 25 -9 20 vhcurveto
          -2 4 27 17 21 22 13 23 rlinecurve
          hintmask 11100100
          13 23 6 29 28 vvcurveto
          23 -5 25 -10 23 vhcurveto
          -16 37 -26 36 -24 35 -2 3 rcurveline
          -25 37 -25 37 -16 38 rrcurveto
          -65 -215 rmoveto
          -4 10 -2 12 11 vvcurveto
          17 4 14 13 12 vhcurveto
          45 -63 25 -35 14 -36 rrcurveto
          4 -11 3 -12 -11 vvcurveto
          -15 -8 -18 -10 -11 vhcurveto
          -15 21 -26 37 -26 37 -17 41 rlinecurve
          endchar
        </CharString>
        <CharString name="semicolon">
          -259 4 callsubr
          171 165 hstem
          44 164 vstem
          194 -92 callgsubr
          -67 393 -46 callsubr
          -87 callsubr
          hvcurveto
          endchar
        </CharString>
        <CharString name="seven">
          -82 21 -21 554 115 hstem
          421 597 rmoveto
          72 -399 -115 252 vlineto
          -35 -78 -27 -59 -34 -77 -45 -103 -36 -118 -15 -119 rrcurveto
          131 hlineto
          21 141 29 87 50 110 rrcurveto
          endchar
        </CharString>
        <CharString name="six">
          -16 -12 116 230 115 109 122 hstem
          41 139 153 134 vstem
          253 -12 rmoveto
          146 68 114 130 152 -76 65 -106 -20 -45 -10 -26 -29 hvcurveto
          105 18 54 40 59 hhcurveto
          21 38 -3 -10 27 hvcurveto
          31 107 rlineto
          22 -49 -46 6 -30 hhcurveto
          -158 -115 -134 -263 -225 93 -70 119 hvcurveto
          -73 323 rmoveto
          13 22 29 10 31 hhcurveto
          40 -1 31 -30 -71 vvcurveto
          -80 -27 -48 -50 -47 -29 42 165 vhcurveto
          endchar
        </CharString>
        <CharString name="slash">
          -89 -97 1 callgsubr
          408 731 -38 callsubr
        </CharString>
        <CharString name="space">
          -329 endchar
        </CharString>
        <CharString name="sterling">
          -22 0 115 189 100 169 110 hstemhm
          80 122 -70 120 hintmask 00000000
          hintmask 11101000
          124 304 rmoveto
          6 -16 2 -20 -19 vvcurveto
          -55 -24 -72 -46 -22 vhcurveto
          -100 399 115 -241 vlineto
          21 40 11 49 40 vvcurveto
          20 -1 20 -4 20 vhcurveto
          108 hlineto
          -6 100 rlineto
          -132 hlineto
          hintmask 11110000
          -9 28 -6 38 26 vvcurveto
          47 28 30 54 32 44 -11 -21 51 vhcurveto
          38 100 rlineto
          34 -74 -54 8 -42 hhcurveto
          -120 -79 -68 -124 -28 3 -32 9 -27 hvcurveto
          -56 -100 hlineto
          endchar
        </CharString>
        <CharString name="t">
          -112 -13 111 318 97 128 -20 hstem
          105 142 vstem
          105 165 rmoveto
          -86 0 -92 158 17 56 2 19 44 vhcurveto
          -21 99 rlineto
          -7 -28 -28 -2 -13 hhcurveto
          -34 -9 17 37 hvcurveto
          264 139 vlineto
          8 97 rlineto
          -146 128 hlineto
          -140 -12 rlineto
          -117 vlineto
          -93 -8 rlineto
          -82 vlineto
          90 -6 rlineto
          endchar
        </CharString>
        <CharString name="thorn">
          27 -191 -21 199 -10 callsubr
          179 1 callsubr
          175 141 vstem
          193 3 rmoveto
          -9 21 20 -7 35 hhcurveto
          170 70 -26 callsubr
          221 -140 -913 140 vlineto
          593 -44 callgsubr
        </CharString>
        <CharString name="three">
          -26 -13 117 203 101 150 122 hstemhm
          286 134 -102 134 hintmask 00000000
          hintmask 11110000
          286 489 rmoveto
          -68 -52 -13 -48 vhcurveto
          -59 -101 69 hlineto
          hintmask 11101000
          82 40 -40 -60 -79 -52 -24 -62 -53 -52 17 15 -42 hvcurveto
          -30 -111 rlineto
          -26 73 57 -12 58 hhcurveto
          146 91 85 137 64 -26 57 -81 35 hvcurveto
          hintmask 11110000
          54 34 21 58 48 vvcurveto
          104 -69 71 -130 -52 -70 -15 -30 -65 vhcurveto
          32 -107 rlineto
          11 27 53 19 53 hhcurveto
          47 40 -19 -50 hvcurveto
          endchar
        </CharString>
        <CharString name="threequarters">
          359 -76 -21 118 -21 109 72 84 85 110 70 82 84 87 -20 hstemhm
          93 187 -96 96 -80 94 401 95 -35 callgsubr
          hintmask 0111110001100000
          138 460 rmoveto
          39 23 -57 callgsubr
          -56 callgsubr
          -15 -20 -32 hvcurveto
          -44 -70 hlineto
          760 -351 -2 callsubr
          hintmask 0111110010100000
          -32 callgsubr
          hintmask 0111110100100000
          -66 hlineto
          66 124 rlineto
          -66 447 -49 callgsubr
          rlineto
          hintmask 1000001000000000
          -20 callsubr
        </CharString>
        <CharString name="threesuperior">
          -148 249 85 110 70 82 84 hstemhm
          103 187 -96 96 -80 94 hintmask 00000000
          hintmask 11100100
          152 444 rmoveto
          hintmask 11101000
          45 13 -57 callgsubr
          hintmask 11110000
          -56 callgsubr
          -11 -20 -32 hvcurveto
          -48 -70 hlineto
          endchar
        </CharString>
        <CharString name="tilde">
          -41 634 -8 callsubr
          hintmask 00000000
          hintmask 10000000
          307 685 rmoveto
          -78 callsubr
          hintmask 01000000
          -65 callsubr
          -77 callgsubr
          hintmask 10000000
          -63 callgsubr
          endchar
        </CharString>
        <CharString name="trademark">
          280 313 -21 312 64 hstem
          142 80 149 69 0 223 0 69 vstem
          142 604 rmoveto
          -312 80 312 100 64 -278 -64 vlineto
          479 -265 rmoveto
          -78 222 -9 -269 rlineto
          -75 hlineto
          21 376 rlineto
          88 hlineto
          82 -242 81 242 rlineto
          88 hlineto
          22 -376 rlineto
          -75 hlineto
          -10 269 -77 -222 rlineto
          endchar
        </CharString>
        <CharString name="two">
          -33 0 116 451 115 hstem
          305 124 vstem
          27 hmoveto
          415 hlineto
          9 116 rlineto
          -258 hlineto
          79 88 22 25 48 64 rrcurveto
          48 63 39 59 77 vvcurveto
          113 -73 77 -126 -54 -60 -14 -31 -63 vhcurveto
          31 -100 rlineto
          21 49 51 9 33 hhcurveto
          56 32 -31 -54 -53 -23 -29 -54 -65 hvcurveto
          -53 -64 -70 -81 -78 -85 rrcurveto
          endchar
        </CharString>
        <CharString name="twosuperior">
          -137 256 88 251 85 hstem
          215 95 vstem
          46 256 -69 callgsubr
          15 27 hhcurveto
          25 18 -16 -29 -35 callsubr
          endchar
        </CharString>
        <CharString name="u">
          -41 callgsubr
          hstem
          50 -33 callgsubr
          vstem
          -103 callsubr
          endchar
        </CharString>
        <CharString name="uacute">
          -41 callgsubr
          109 -21 198 -96 callgsubr
          227 676 -54 callsubr
        </CharString>
        <CharString name="ucircumflex">
          -41 callgsubr
          109 -21 146 -96 callgsubr
          hintmask 11001100
          70 689 -101 callsubr
        </CharString>
        <CharString name="udieresis">
          -41 callgsubr
          103 111 hstemhm
          50 140 -100 -22 callgsubr
          -15 -36 callgsubr
          hintmask 00101100
          -103 callsubr
          -19 748 -91 callgsubr
        </CharString>
        <CharString name="ugrave">
          -41 callgsubr
          107 -21 177 -96 callgsubr
          110 600 -53 callgsubr
        </CharString>
        <CharString name="underscore">
          19 0 109 hstem
          483 109 rmoveto
          -432 -109 432 hlineto
          endchar
        </CharString>
        <CharString name="uni0025">
          295 -20 callgsubr
          25 -29 callsubr
          291 -96 callsubr
        </CharString>
        <CharString name="uni007F">
          endchar
        </CharString>
        <CharString name="uni00A0">
          -329 endchar
        </CharString>
        <CharString name="uni00AD">
          -6 endchar
        </CharString>
        <CharString name="v">
          -4 -8 callgsubr
          255 112 rmoveto
          -104 401 rlineto
          -141 hlineto
          157 -513 rlineto
          176 hlineto
          160 513 rlineto
          -141 hlineto
          endchar
        </CharString>
        <CharString name="w">
          174 -8 callgsubr
          279 504 rmoveto
          -69 -392 -52 401 rlineto
          -137 hlineto
          106 -513 rlineto
          156 hlineto
          63 373 62 -373 rlineto
          150 hlineto
          115 513 rlineto
          -137 hlineto
          -55 -398 -73 398 rlineto
          endchar
        </CharString>
        <CharString name="x">
          12 -8 callgsubr
          506 513 -15 callgsubr
          -93 -172 -93 172 rlineto
          -150 hlineto
          160 -247 -178 -266 rlineto
          150 hlineto
          108 191 107 -191 rlineto
          148 hlineto
          -172 264 rlineto
          endchar
        </CharString>
        <CharString name="y">
          -17 callsubr
          hstem
          -94 callgsubr
          endchar
        </CharString>
        <CharString name="yacute">
          -17 callsubr
          103 -21 177 -20 hstemhm
          -51 callgsubr
          -94 callgsubr
          409 163 -90 callgsubr
          hintmask 11000000
          -42 callgsubr
        </CharString>
        <CharString name="ydieresis">
          -17 callsubr
          99 111 hstemhm
          60 -22 callgsubr
          hintmask 00000000
          hintmask 00111000
          -94 callgsubr
          151 235 -97 callgsubr
          hintmask 11000000
          -105 callgsubr
        </CharString>
        <CharString name="yen">
          91 21 -21 109 85 53 84 337 -20 hstem
          231 144 vstem
          83 247 rmoveto
          148 -53 -148 -85 148 -109 144 109 148 85 -148 53 148 84 -113 hlineto
          175 337 -7 callgsubr
          2 callgsubr
          -136 285 -7 callgsubr
          175 -337 rlineto
          -113 hlineto
          endchar
        </CharString>
        <CharString name="z">
          -64 0 95 321 96 hstem
          -61 callsubr
          endchar
        </CharString>
        <CharString name="zcaron">
          -64 0 95 321 96 81 -21 134 -20 hstemhm
          -51 callgsubr
          -61 callsubr
          -279 647 -45 callsubr
        </CharString>
        <CharString name="zero">
          31 -13 118 457 119 hstem
          43 136 188 136 vstem
          270 -13 rmoveto
          149 84 79 269 269 -80 77 -148 -148 -84 -80 -269 -271 79 -74 148 hvcurveto
          3 575 rmoveto
          66 28 -51 -177 -178 -28 -51 -66 -66 -28 51 178 177 28 51 66 hvcurveto
          endchar
        </CharString>
      <CharString index="0">
        -84 callsubr
        210 vlineto
        141 -54 51 -135 -41 -86 -12 -33 -55 vhcurveto
        29 -88 rlineto
        11 33 43 10 42 hhcurveto
        -73 callgsubr
        -32 -84 callgsubr
        -90 57 -57 91 60 56 23 25 30 vhcurveto
        return
      </CharString>
      <CharString index="1">
        303 -12 rmoveto
        83 1 73 24 41 51 rrcurveto
        33 46 14 55 81 vvcurveto
        421 -145 -416 vlineto
        -53 -3 -37 -17 -22 vhcurveto
        -21 -13 -29 -10 -36 hhcurveto
        -43 -24 10 20 -13 hvcurveto
        -17 23 -3 36 54 vvcurveto
        416 -145 -421 vlineto
        -81 15 -56 31 -45 vhcurveto
        -50 40 74 -26 84 hhcurveto
        return
      </CharString>
      <CharString index="2">
        -106 callsubr
        endchar
      </CharString>
      <CharString index="3">
        185 hmoveto
        -103 callgsubr
        return
      </CharString>
      <CharString index="4">
        -40 -30 -31 -37 -40 30 -31 40 37 31 31 40 37 -31 31 -37 hvcurveto
        return
      </CharString>
      <CharString index="5">
        rmoveto
        84 -85 64 52 -111 119 rlineto
        -74 hlineto
        -111 -119 64 -52 rlineto
        return
      </CharString>
      <CharString index="6">
        570 hmoveto
        -105 callsubr
        return
      </CharString>
      <CharString index="7">
        -190 91 rmoveto
        -37 -29 19 50 47 40 17 59 16 19 -1 -1 14 hvcurveto
        -105 vlineto
        -17 -26 -32 -9 -24 hhcurveto
        return
      </CharString>
      <CharString index="8">
        -1 -570 rmoveto
        -105 -26 99 125 126 26 103 105 106 25 -103 -126 -125 -26 -99 -105 hvcurveto
        return
      </CharString>
      <CharString index="9">
        rmoveto
        -97 callsubr
        return
      </CharString>
      <CharString index="10">
        -98 callgsubr
        hvcurveto
        return
      </CharString>
      <CharString index="11">
        -20 hstemhm
        50 -33 callgsubr
        -51 callgsubr
        -103 callsubr
        return
      </CharString>
      <CharString index="12">
        208 116 rmoveto
        -82 callsubr
        -421 -669 430 116 vlineto
        return
      </CharString>
      <CharString index="13">
        192 13 rmoveto
        -114 -27 -27 -7 -68 hhcurveto
        -20 -49 9 1 hvcurveto
        -21 -97 rlineto
        -12 40 33 -6 32 hhcurveto
        136 41 65 190 66 hvcurveto
        162 471 rlineto
        -135 hlineto
        -102 -350 -115 354 -133 -17 rlineto
        return
      </CharString>
      <CharString index="14">
        -42 callsubr
        103 -21 140 -102 callsubr
        return
      </CharString>
      <CharString index="15">
        59 rmoveto
        -104 callsubr
        return
      </CharString>
      <CharString index="16">
        -97 callgsubr
        hintmask 11010010
        -105 callgsubr
      </CharString>
      <CharString index="17">
        -88 callsubr
        rlineto
        return
      </CharString>
      <CharString index="18">
        -21 callgsubr
        157 156 -47 callsubr
        -157 -156 -36 callsubr
        310 rmoveto
        return
      </CharString>
      <CharString index="19">
        -78 callsubr
        -65 callsubr
        hhcurveto
        return
      </CharString>
      <CharString index="20">
        -51 callsubr
        hintmask 00011000
        -95 callgsubr
        return
      </CharString>
      <CharString index="21">
        -98 callsubr
        hintmask 1110000110000000
        -85 callgsubr
      </CharString>
      <CharString index="22">
        -71 -40 callgsubr
        1 76 rmoveto
        30 5 18 75 78 -57 callsubr
      </CharString>
      <CharString index="23">
        0 -27 hhcurveto
        -66 -116 -22 -128 -1 hvcurveto
        return
      </CharString>
      <CharString index="24">
        rmoveto
        179 -142 141 -178 -178 -142 -141 -179 -179 142 -141 178 178 142 141 179 vhcurveto
        -75 hmoveto
        -147 -104 -110 -141 -142 -104 108 147 147 104 108 142 141 104 -106 -147 vhcurveto
        return
      </CharString>
      <CharString index="25">
        -40 callsubr
        vhcurveto
        -94 callsubr
        return
      </CharString>
      <CharString index="26">
        -5 -13 93 -93 -73 callsubr
        return
      </CharString>
      <CharString index="27">
        rmoveto
        -124 hlineto
        12 -31 9 -26 -25 vvcurveto
        -31 -15 -28 -43 -32 vhcurveto
        51 -65 rlineto
        87 44 41 55 63 vvcurveto
        24 -6 26 -12 26 vhcurveto
        return
      </CharString>
      <CharString index="28">
        rmoveto
        -64 -52 111 -119 rlineto
        74 hlineto
        111 119 -64 52 return
      </CharString>
      <CharString index="29">
        -19 6 -25 6 -13 vhcurveto
        115 hlineto
        -11 25 -6 26 21 vvcurveto
        58 31 55 51 59 vhcurveto
        -103 hlineto
        -54 -50 -35 -65 -72 vvcurveto
        return
      </CharString>
      <CharString index="30">
        40 43 -43 50 hhcurveto
        41 45 38 37 22 hvcurveto
        return
      </CharString>
      <CharString index="31">
        -91 callsubr
        -40 callsubr
        hvcurveto
        -94 callsubr
        return
      </CharString>
      <CharString index="32">
        -69 callsubr
        81 -21 140 -87 callgsubr
        return
      </CharString>
      <CharString index="33">
        21 44 4 24 44 hvcurveto
        -19 83 rlineto
        return
      </CharString>
      <CharString index="34">
        53 35 -6 -76 hvcurveto
        -49 vlineto
        3 -36 return
      </CharString>
      <CharString index="35">
        -20 hstemhm
        hintmask 00000000
        hintmask 00011000
        -101 callgsubr
        return
      </CharString>
      <CharString index="36">
        -49 -38 33 127 135 38 25 50 hvcurveto
        return
      </CharString>
      <CharString index="37">
        rmoveto
        146 149 110 -149 145 -111 -145 -149 -110 149 -146 vlineto
        return
      </CharString>
      <CharString index="38">
        rmoveto
        277 88 -145 hlineto
        12 13 6 7 8 9 23 24 14 15 14 19 rrcurveto
        26 35 29 46 44 vvcurveto
        74 -49 50 -81 -34 -40 -10 -22 -47 vhcurveto
        26 -77 rlineto
        9 25 35 return
      </CharString>
      <CharString index="39">
        208 668 rmoveto
        -144 -27 callsubr
        hlineto
        return
      </CharString>
      <CharString index="40">
        53 21 -21 158 109 401 -20 return
      </CharString>
      <CharString index="41">
        21 -21 668 -20 return
      </CharString>
      <CharString index="42">
        -53 callsubr
        -588 vlineto
        140 -14 rlineto
        602 return
      </CharString>
      <CharString index="43">
        43 30 vvcurveto
        112 -66 68 -120 return
      </CharString>
      <CharString index="44">
        -49 54 rlineto
        -27 -22 -18 -8 -15 hhcurveto
        return
      </CharString>
      <CharString index="45">
        72 -33 53 -30 -51 vvcurveto
        -54 -41 -18 -52 -58 -72 22 20 -44 vhcurveto
        -37 -119 return
      </CharString>
      <CharString index="46">
        -142 82 -73 176 186 rlineto
        59 vlineto
        -176 185 -82 -70 rlineto
        return
      </CharString>
      <CharString index="47">
        -41 callsubr
        102 -12 callgsubr
        hintmask 00110000
        -68 callgsubr
        return
      </CharString>
      <CharString index="48">
        -20 -49 callsubr
        hintmask 0000000000000000
        return
      </CharString>
      <CharString index="49">
        36 -25 -135 -127 -37 -33 return
      </CharString>
      <CharString index="50">
        -23 -33 -33 -19 -21 -30 -23 -35 11 20 -33 hvcurveto
        -35 -74 rlineto
        -27 43 46 -15 37 hhcurveto
        88 55 58 83 41 -10 33 -39 24 hvcurveto
        return
      </CharString>
      <CharString index="51">
        22 21 13 30 27 vvcurveto
        71 -46 43 -82 -33 -41 -12 -20 -40 vhcurveto
        26 -71 rlineto
        9 18 32 10 26 hhcurveto
        24 20 -9 -25 -28 return
      </CharString>
      <CharString index="52">
        rmoveto
        -82 70 -176 -185 rlineto
        -59 vlineto
        176 -186 82 73 return
      </CharString>
      <CharString index="53">
        618 hmoveto
        668 -140 -468 vlineto
        -262 468 rlineto
        -152 -668 139 467 hlineto
        263 -467 rlineto
        return
      </CharString>
      <CharString index="54">
        -77 callsubr
        hintmask 11001100
        -43 callsubr
      </CharString>
      <CharString index="55">
        158 -46 callsubr
        -81 callsubr
        return
      </CharString>
      <CharString index="56">
        hintmask 00000000
        hintmask 00110000
        return
      </CharString>
      <CharString index="57">
        -4 -13 107 320 108 return
      </CharString>
      <CharString index="58">
        rmoveto
        -105 31 -285 -851 return
      </CharString>
      <CharString index="59">
        -35 -13 105 150 76 105 99 return
      </CharString>
      <CharString index="60">
        -29 18 28 -17 46 hhcurveto
        return
      </CharString>
      <CharString index="61">
        -122 -101 -71 -197 return
      </CharString>
      <CharString index="62">
        vlineto
        -84 2 -90 154 17 42 3 19 44 vhcurveto
        endchar
      </CharString>
      <CharString index="63">
        vmoveto
        14 23 30 13 34 hhcurveto
        57 31 -31 -117 -92 -25 -68 -98 -20 -16 2 3 -16 hvcurveto
        endchar
      </CharString>
      <CharString index="64">
        -33 callsubr
        60 2 -23 callsubr
        return
      </CharString>
      <CharString index="65">
        34 -78 rlineto
        endchar
      </CharString>
      <CharString index="66">
        28 -13 114 412 -20 return
      </CharString>
      <CharString index="67">
        -56 39 111 -1 hvcurveto
        return
      </CharString>
      <CharString index="68">
        -66 callgsubr
        hstem
        return
      </CharString>
      <CharString index="69">
        44 -37 37 -44 return
      </CharString>
      <CharString index="70">
        144 vlineto
        9 96 rlineto
        -153 15 hlineto
        61 11 35 89 27 35 -2 -8 34 vhcurveto
        return
      </CharString>
      <CharString index="71">
        140 hintmask 00000000
        return
      </CharString>
      <CharString index="72">
        hintmask 0000000000000000
        return
      </CharString>
      <CharString index="73">
        rmoveto
        -38 -29 -28 -34 -36 29 -31 38 35 28 31 36 34 -28 28 -35 hvcurveto
        return
      </CharString>
      <CharString index="74">
        140 160 140 return
      </CharString>
      <CharString index="75">
        -140 -244 rlineto
        -55 164 -109 95 109 vlineto
        -95 72 rmoveto
        return
      </CharString>
      <CharString index="76">
        108 vstem
        40 700 rmoveto
        -34 callsubr
        return
      </CharString>
      <CharString index="77">
        -269 21 -21 524 -20 return
      </CharString>
      <CharString index="78">
        61 59 11 22 51 return
      </CharString>
      <CharString index="79">
        43 -47 -54 15 -101 hhcurveto
        -193 -27 callsubr
        244 25 hlineto
        return
      </CharString>
      <CharString index="80">
        hstemhm
        21 130 return
      </CharString>
      <CharString index="81">
        -266 1 137 -83 152 hhcurveto
        53 53 7 11 48 hvcurveto
        return
      </CharString>
      <CharString index="82">
        -96 -13 107 320 109 hstem
        38 131 91 131 vstem
        return
      </CharString>
      <CharString index="83">
        hmoveto
        -47 -36 -37 -44 -81 callsubr
        hvcurveto
        return
      </CharString>
      <CharString index="84">
        21 -21 408 114 return
      </CharString>
      <CharString index="85">
        110 55 110 return
      </CharString>
      <CharString index="86">
        rmoveto
        67 85 31 return
      </CharString>
      <CharString index="87">
        -10 66 -35 -21 300 67 -44 66 244 67 hstemhm
        return
      </CharString>
      <CharString index="88">
        hlineto
        34 192 rlineto
        -110 hlineto
        -35 -192 rlineto
        return
      </CharString>
      <CharString index="89">
        rmoveto
        -16 -21 -33 -5 -73 hhcurveto
        -11 212 26 hlineto
        return
      </CharString>
      <CharString index="90">
        138 -130 -22 callgsubr
        -99 138 return
      </CharString>
      <CharString index="91">
        111 -111 139 hstemhm
        return
      </CharString>
      <CharString index="92">
        rmoveto
        -146 hlineto
        return
      </CharString>
      <CharString index="93">
        138 668 rmoveto
        return
      </CharString>
      <CharString index="94">
        223 109 hstem
        return
      </CharString>
      <CharString index="95">
        -21 140 -51 callsubr
        return
      </CharString>
      <CharString index="96">
        98 -21 146 110 145 -20 hstem
        return
      </CharString>
      <CharString index="97">
        rmoveto
        -407 -109 407 hlineto
        endchar
      </CharString>
      <CharString index="98">
        96 111 114 hstem
        return
      </CharString>
      <CharString index="99">
        21 -21 513 -20 hstem
        return
      </CharString>
      <CharString index="100">
        rlineto
        -146 hlineto
        return
      </CharString>
      <CharString index="101">
        -213 -112 -21 885 -20 hstem
        return
      </CharString>
      <CharString index="102">
        -169 -131 104 671 104 hstem
        return
      </CharString>
      <CharString index="103">
        -118 -513 143 371 hlineto
        return
      </CharString>
      <CharString index="104">
        -24 -27 -8 -32 hhcurveto
        -70 -20 70 return
      </CharString>
      <CharString index="105">
        rmoveto
        -457 -109 457 hlineto
        return
      </CharString>
      <CharString index="106">
        68 vvcurveto
        59 -16 49 -45 40 vhcurveto
        return
      </CharString>
      <CharString index="107" raw="1">
        f71c1300 0b  
      </CharString>
      <CharString index="108">
        -21 880 -20 hstem
        return
      </CharString>
      <CharString index="109">
        -136 -285 return
      </CharString>
      <CharString index="110">
        -21 187 -20 return
      </CharString>
      <CharString index="111">
        351 vlineto
        96 return
      </CharString>
      <CharString index="112">
        680 rmoveto
        return
      </CharString>
</ttFont>
